<svg width="48" height="48" viewBox="0 0 48 48" fill="none" xmlns="http://www.w3.org/2000/svg">
<path d="M14.4327 8.0009C13.7619 8.29253 13.1888 8.77029 12.7811 9.3776C12.3735 9.9849 12.1485 10.6963 12.1327 11.4276V15.9076L12.4593 15.5009C13.4393 14.6009 12.9527 14.0276 14.0993 14.0276L14.6927 14.1409L15.0193 14.0276C16.1927 14.0276 16.7993 12.5676 17.4527 11.6876C18.786 12.6009 19.946 13.8809 21.6393 13.8809L22.886 14.1409L24.7527 14.0276C24.9621 14.0447 25.1711 13.9907 25.346 13.8742C25.3391 13.9162 25.3346 13.9584 25.3327 14.0009L26.7327 15.0076V11.6742C26.7327 8.3009 23.686 5.55423 19.9393 5.55423C18.1762 5.53295 16.4679 6.1673 15.146 7.33423L14.4327 8.0009Z" fill="#009DD4"/>
<path d="M19.46 25.3341C14.4467 25.3341 13.3333 20.4808 13.3333 18.7741V11.6341C13.3333 11.5457 13.3685 11.4609 13.431 11.3984C13.4935 11.3359 13.5783 11.3008 13.6667 11.3008C13.7551 11.3008 13.8399 11.3359 13.9024 11.3984C13.9649 11.4609 14 11.5457 14 11.6341V18.7741C14 18.8341 14.1533 24.6874 19.4733 24.6874C24.7933 24.6874 24.9 18.8341 24.9 18.7741V11.6341C24.9 11.5457 24.9351 11.4609 24.9976 11.3984C25.0602 11.3359 25.1449 11.3008 25.2333 11.3008C25.3217 11.3008 25.4065 11.3359 25.469 11.3984C25.5316 11.4609 25.5667 11.5457 25.5667 11.6341V18.7741C25.5533 20.6008 24.4533 25.3341 19.46 25.3341Z" fill="#444444"/>
<path d="M23.4189 14.3947C22.7024 14.3894 21.9889 14.3021 21.2922 14.1347C19.9045 13.7993 18.6203 13.1286 17.5522 12.1814C17.2305 12.8605 16.7096 13.4255 16.0589 13.8014C15.3175 14.1858 14.494 14.3848 13.6589 14.3814V14.3814C13.5705 14.3814 13.4857 14.3462 13.4232 14.2837C13.3606 14.2212 13.3255 14.1364 13.3255 14.048C13.3255 13.9596 13.3606 13.8748 13.4232 13.8123C13.4857 13.7498 13.5705 13.7147 13.6589 13.7147C14.3888 13.7182 15.1089 13.5468 15.7589 13.2147C16.402 12.8173 16.891 12.2132 17.1455 11.5014L17.3322 11.0547L17.6789 11.388C18.7293 12.4123 20.0343 13.1373 21.4589 13.488C22.6618 13.8128 23.9293 13.8128 25.1322 13.488C25.2206 13.4624 25.3156 13.4729 25.3962 13.5173C25.4769 13.5617 25.5366 13.6363 25.5622 13.7247C25.5878 13.8131 25.5773 13.9081 25.5329 13.9887C25.4885 14.0693 25.4139 14.129 25.3255 14.1547C24.7056 14.3297 24.0629 14.4106 23.4189 14.3947V14.3947Z" fill="#444444"/>
<path fill-rule="evenodd" clip-rule="evenodd" d="M36.7514 26.9813L35.5581 28.188L34.3714 26.9813C33.9026 26.5132 33.2672 26.2502 32.6047 26.2502C31.9422 26.2502 31.3068 26.5132 30.8381 26.9813V26.9813C30.3646 27.4594 30.099 28.1051 30.099 28.778C30.099 29.4509 30.3646 30.0966 30.8381 30.5747L35.5781 35.368L40.3181 30.5747C40.7915 30.0966 41.0571 29.4509 41.0571 28.778C41.0571 28.1051 40.7915 27.4594 40.3181 26.9813V26.9813C40.0854 26.7445 39.8078 26.5564 39.5016 26.428C39.1954 26.2995 38.8667 26.2334 38.5347 26.2334C38.2027 26.2334 37.874 26.2995 37.5678 26.428C37.2616 26.5564 36.9841 26.7445 36.7514 26.9813V26.9813Z" fill="#009DD4"/>
<path d="M13.6528 18.048C12.9861 17.988 12.1328 17.568 12.1328 15.9546C12.1328 14.3413 12.9395 13.868 13.6195 13.7413C13.6633 13.733 13.7082 13.7334 13.7519 13.7425C13.7955 13.7515 13.8369 13.7691 13.8737 13.7942C13.9106 13.8192 13.9421 13.8513 13.9665 13.8886C13.991 13.9258 14.0078 13.9675 14.0161 14.0113C14.0245 14.0551 14.0241 14.1001 14.015 14.1437C14.0059 14.1873 13.9884 14.2287 13.9633 14.2656C13.9382 14.3024 13.9061 14.3339 13.8689 14.3584C13.8316 14.3828 13.7899 14.3997 13.7461 14.408C13.3395 14.488 12.7995 14.7346 12.7995 15.968C12.7995 17.2013 13.2861 17.3613 13.7128 17.4013C13.8012 17.4057 13.8842 17.4451 13.9436 17.5107C14.003 17.5764 14.0339 17.6629 14.0295 17.7513C14.0251 17.8397 13.9857 17.9227 13.9201 17.9821C13.8544 18.0415 13.7679 18.0724 13.6795 18.068L13.6528 18.048Z" fill="#444444"/>
<path d="M25.5194 18.0478C25.4369 18.0467 25.3576 18.0157 25.2962 17.9605C25.2349 17.9053 25.1958 17.8297 25.1861 17.7478C25.1824 17.704 25.1875 17.6599 25.2009 17.6181C25.2144 17.5762 25.236 17.5374 25.2645 17.504C25.293 17.4705 25.3278 17.443 25.367 17.4231C25.4062 17.4032 25.4489 17.3912 25.4927 17.3878C25.9194 17.3478 26.4061 17.1478 26.4061 15.9545C26.4061 14.7611 25.8661 14.4745 25.4594 14.3945C25.3724 14.3767 25.2958 14.3256 25.2459 14.2521C25.1961 14.1786 25.177 14.0885 25.1927 14.0011C25.2015 13.9582 25.2186 13.9175 25.2431 13.8812C25.2676 13.8449 25.299 13.8138 25.3355 13.7896C25.3721 13.7655 25.413 13.7488 25.456 13.7405C25.499 13.7321 25.5432 13.7324 25.5861 13.7411C26.2527 13.8678 27.0727 14.3611 27.0727 15.9545C27.0727 17.5478 26.2461 18.0011 25.5527 18.0478H25.5194Z" fill="#444444"/>
<path d="M32.8517 38.742H6.625V29.7487C6.625 27.5353 7.85833 27.082 9.125 26.7953C9.93167 26.6153 12.3117 26.1287 16.185 25.3687V24.3753C16.185 24.2869 16.2201 24.2021 16.2826 24.1396C16.3451 24.0771 16.4299 24.042 16.5183 24.042C16.6067 24.042 16.6915 24.0771 16.754 24.1396C16.8165 24.2021 16.8517 24.2869 16.8517 24.3753V25.9153L16.585 25.9687C12.5517 26.7687 10.0917 27.2687 9.25167 27.4487C8.05833 27.7087 7.25167 28.0153 7.25167 29.7487V38.0753H32.185V32.6687C32.185 32.5803 32.2201 32.4955 32.2826 32.433C32.3451 32.3704 32.4299 32.3353 32.5183 32.3353C32.6067 32.3353 32.6915 32.3704 32.754 32.433C32.8165 32.4955 32.8517 32.5803 32.8517 32.6687V38.742Z" fill="#444444"/>
<path d="M30.0853 27.7877H30.0053C29.1853 27.5877 26.732 27.041 22.712 26.1677L22.4453 26.1077V24.221C22.4453 24.1326 22.4804 24.0478 22.5429 23.9853C22.6055 23.9228 22.6902 23.8877 22.7786 23.8877C22.8671 23.8877 22.9518 23.9228 23.0143 23.9853C23.0769 24.0478 23.112 24.1326 23.112 24.221V25.5544C26.9853 26.401 29.332 26.9344 30.1653 27.1277C30.2078 27.1386 30.2477 27.1577 30.2828 27.1841C30.3179 27.2104 30.3474 27.2434 30.3697 27.2812C30.392 27.319 30.4067 27.3608 30.4128 27.4042C30.4189 27.4477 30.4163 27.4919 30.4053 27.5344C30.3887 27.6066 30.3479 27.6711 30.2897 27.7172C30.2316 27.7632 30.1595 27.7881 30.0853 27.7877Z" fill="#444444"/>
<path d="M19.6441 29.8008L16.4375 25.8008C16.4103 25.7671 16.3901 25.7284 16.3779 25.6869C16.3657 25.6454 16.3619 25.6018 16.3665 25.5588C16.3711 25.5158 16.3842 25.4741 16.405 25.4361C16.4257 25.3982 16.4537 25.3647 16.4875 25.3375C16.5212 25.3104 16.5599 25.2901 16.6014 25.278C16.6429 25.2658 16.6865 25.2619 16.7295 25.2666C16.7725 25.2712 16.8142 25.2843 16.8522 25.305C16.8901 25.3258 16.9236 25.3538 16.9508 25.3875L19.6575 28.7208L22.5241 25.3875C22.5526 25.3542 22.5873 25.3269 22.6263 25.3071C22.6653 25.2872 22.7079 25.2752 22.7515 25.2718C22.7952 25.2684 22.8391 25.2737 22.8807 25.2872C22.9223 25.3008 22.9609 25.3224 22.9941 25.3508C23.0274 25.3793 23.0547 25.414 23.0746 25.453C23.0944 25.4921 23.1064 25.5346 23.1098 25.5782C23.1132 25.6219 23.108 25.6658 23.0944 25.7074C23.0809 25.749 23.0592 25.7876 23.0308 25.8208L19.6441 29.8008Z" fill="#444444"/>
<path d="M34.3643 42.3942H23.031C21.451 42.3942 20.4243 41.9609 19.891 41.0609C19.5117 40.2901 19.3525 39.4296 19.431 38.5742V32.9076C19.431 32.8191 19.4661 32.7344 19.5286 32.6718C19.5911 32.6093 19.6759 32.5742 19.7643 32.5742C19.8527 32.5742 19.9375 32.6093 20 32.6718C20.0625 32.7344 20.0976 32.8191 20.0976 32.9076V38.5609C20.0286 39.2977 20.1526 40.0399 20.4576 40.7142C20.8643 41.3809 21.7043 41.7076 23.031 41.7076H34.3643C36.0043 41.7076 37.6976 41.0409 37.6976 39.4809V33.2142C37.6976 33.1258 37.7328 33.041 37.7953 32.9785C37.8578 32.916 37.9426 32.8809 38.031 32.8809C38.1194 32.8809 38.2042 32.916 38.2667 32.9785C38.3292 33.041 38.3643 33.1258 38.3643 33.2142V39.5009C38.331 41.4876 36.2776 42.3942 34.3643 42.3942Z" fill="#444444"/>
<path d="M18.5188 30.8273C18.4526 30.8285 18.3876 30.8099 18.3321 30.774C15.1854 28.6673 13.2721 26.3407 12.6654 23.8873C12.0439 21.8559 11.9703 19.6963 12.4521 17.6273C12.4639 17.5836 12.4842 17.5425 12.5119 17.5066C12.5396 17.4707 12.5741 17.4406 12.6134 17.418C12.6527 17.3954 12.6961 17.3808 12.741 17.3749C12.786 17.3691 12.8317 17.3722 12.8754 17.384C12.9192 17.3958 12.9602 17.4162 12.9961 17.4438C13.0321 17.4715 13.0622 17.506 13.0848 17.5453C13.1074 17.5846 13.122 17.628 13.1278 17.6729C13.1337 17.7179 13.1306 17.7636 13.1188 17.8073C12.6741 19.7634 12.7476 21.8017 13.3321 23.7207C13.9254 26.0073 15.7521 28.194 18.7588 30.2207C18.8166 30.2611 18.8602 30.3188 18.8832 30.3855C18.9062 30.4523 18.9074 30.5246 18.8866 30.5921C18.8658 30.6595 18.8242 30.7187 18.7677 30.7609C18.7112 30.8032 18.6427 30.8265 18.5721 30.8273H18.5188Z" fill="#444444"/>
<path d="M20.6652 30.8273C20.5946 30.8264 20.5261 30.8032 20.4696 30.7609C20.4131 30.7186 20.3714 30.6595 20.3507 30.592C20.3299 30.5245 20.3311 30.4522 20.3541 30.3855C20.3771 30.3187 20.4206 30.261 20.4785 30.2206C23.4852 28.2206 25.3119 26.0073 25.9052 23.7206C26.4962 21.8027 26.5698 19.7627 26.1185 17.8073C26.0958 17.7216 26.1075 17.6304 26.1511 17.5532C26.1947 17.4759 26.2667 17.4188 26.3519 17.3939C26.4367 17.3714 26.527 17.3833 26.6031 17.427C26.6793 17.4707 26.7351 17.5427 26.7585 17.6273C27.2428 19.6957 27.1715 21.8553 26.5519 23.8873C25.8852 26.3406 23.9985 28.6539 20.8519 30.7739C20.7967 30.8106 20.7314 30.8293 20.6652 30.8273V30.8273Z" fill="#444444"/>
<path fill-rule="evenodd" clip-rule="evenodd" d="M19.7382 32.9268C19.8981 32.9276 20.0566 32.8969 20.2046 32.8363C20.3526 32.7757 20.4871 32.6865 20.6005 32.5738C20.7139 32.461 20.8038 32.327 20.8652 32.1793C20.9266 32.0317 20.9582 31.8733 20.9582 31.7134V30.4934C20.9582 30.1699 20.8297 29.8596 20.6009 29.6308C20.3721 29.402 20.0618 29.2734 19.7382 29.2734C19.4147 29.2734 19.1043 29.402 18.8755 29.6308C18.6468 29.8596 18.5182 30.1699 18.5182 30.4934V31.7134C18.5182 31.8733 18.5498 32.0317 18.6112 32.1793C18.6726 32.327 18.7626 32.461 18.8759 32.5738C18.9893 32.6865 19.1239 32.7757 19.2718 32.8363C19.4198 32.8969 19.5783 32.9276 19.7382 32.9268ZM19.1582 30.4934C19.1582 30.3396 19.2193 30.1921 19.3281 30.0833C19.4369 29.9745 19.5844 29.9134 19.7382 29.9134C19.892 29.9134 20.0396 29.9745 20.1483 30.0833C20.2571 30.1921 20.3182 30.3396 20.3182 30.4934V31.7134C20.3182 31.8673 20.2571 32.0148 20.1483 32.1236C20.0396 32.2323 19.892 32.2934 19.7382 32.2934C19.5844 32.2934 19.4369 32.2323 19.3281 32.1236C19.2193 32.0148 19.1582 31.8673 19.1582 31.7134V30.4934Z" fill="#444444"/>
<path d="M10.6073 31.4416C10.5188 31.4382 10.435 31.4011 10.373 31.3379C10.3111 31.2746 10.2756 31.1901 10.274 31.1016C10.3055 30.3674 10.2405 29.6322 10.0806 28.9149C10.0304 28.6698 9.92821 28.4382 9.78102 28.2358C9.63384 28.0335 9.44503 27.8649 9.2273 27.7416C9.1848 27.7224 9.1468 27.6945 9.11577 27.6596C9.08473 27.6248 9.06135 27.5839 9.04712 27.5395C9.0329 27.495 9.02816 27.4481 9.03321 27.4018C9.03825 27.3554 9.05297 27.3106 9.07641 27.2703C9.09986 27.23 9.1315 27.195 9.1693 27.1677C9.2071 27.1404 9.25021 27.1213 9.29585 27.1117C9.34149 27.102 9.38864 27.1021 9.43425 27.1119C9.47986 27.1216 9.52292 27.1408 9.56064 27.1682C9.85599 27.3355 10.1126 27.5633 10.3137 27.8368C10.5148 28.1102 10.6557 28.4231 10.7273 28.7549C10.901 29.5289 10.9727 30.3223 10.9406 31.1149C10.9406 31.1584 10.932 31.2014 10.9151 31.2415C10.8983 31.2816 10.8737 31.3179 10.8426 31.3483C10.8116 31.3787 10.7748 31.4026 10.7344 31.4187C10.694 31.4347 10.6508 31.4425 10.6073 31.4416V31.4416Z" fill="#444444"/>
<path d="M28.2602 31.4421C28.1734 31.4405 28.0906 31.4057 28.0286 31.345C27.9666 31.2843 27.9302 31.2022 27.9268 31.1155C27.9015 30.323 27.9731 29.5305 28.1402 28.7555C28.216 28.4218 28.3615 28.108 28.5672 27.8345C28.7728 27.5611 29.034 27.3342 29.3335 27.1688C29.4107 27.1247 29.502 27.1126 29.588 27.135C29.6739 27.1575 29.7477 27.2127 29.7935 27.2888C29.8161 27.3263 29.8309 27.3679 29.837 27.4112C29.8432 27.4545 29.8406 27.4986 29.8294 27.5408C29.8182 27.5831 29.7987 27.6227 29.7719 27.6573C29.7451 27.6919 29.7116 27.7207 29.6735 27.7421C29.4556 27.8661 29.2664 28.0347 29.1182 28.2369C28.97 28.4391 28.8661 28.6703 28.8135 28.9155C28.6599 29.6337 28.595 30.3681 28.6202 31.1021C28.6211 31.1459 28.6133 31.1894 28.5974 31.2302C28.5814 31.271 28.5576 31.3082 28.5273 31.3398C28.4969 31.3714 28.4607 31.3967 28.4206 31.4142C28.3805 31.4318 28.3373 31.4413 28.2935 31.4421H28.2602Z" fill="#444444"/>
<path d="M37.6927 33.3809C37.2972 33.3809 36.9105 33.2636 36.5816 33.0438C36.2527 32.824 35.9963 32.5117 35.845 32.1462C35.6936 31.7808 35.654 31.3786 35.7311 30.9907C35.8083 30.6027 35.9988 30.2464 36.2785 29.9666C36.5582 29.6869 36.9146 29.4965 37.3025 29.4193C37.6905 29.3421 38.0926 29.3817 38.4581 29.5331C38.8235 29.6845 39.1359 29.9408 39.3557 30.2697C39.5754 30.5986 39.6927 30.9853 39.6927 31.3809C39.6927 31.9113 39.482 32.42 39.1069 32.7951C38.7319 33.1701 38.2232 33.3809 37.6927 33.3809V33.3809ZM37.6927 30.1009C37.429 30.1009 37.1712 30.1791 36.952 30.3256C36.7327 30.4721 36.5618 30.6803 36.4609 30.9239C36.36 31.1676 36.3336 31.4357 36.385 31.6943C36.4365 31.953 36.5634 32.1905 36.7499 32.377C36.9364 32.5635 37.174 32.6905 37.4326 32.7419C37.6912 32.7934 37.9593 32.767 38.203 32.666C38.4466 32.5651 38.6548 32.3942 38.8013 32.175C38.9479 31.9557 39.0261 31.6979 39.0261 31.4342C39.0261 31.0806 38.8856 30.7414 38.6355 30.4914C38.3855 30.2413 38.0463 30.1009 37.6927 30.1009Z" fill="#444444"/>
</svg>
