<svg width="48" height="48" viewBox="0 0 48 48" fill="none" xmlns="http://www.w3.org/2000/svg">
<path d="M47.8253 40.2432H0V40.9904H47.8253V40.2432Z" fill="#444444"/>
<path d="M42.9681 35.7596H4.85727C4.3618 35.7596 3.88662 35.5628 3.53627 35.2124C3.18592 34.8621 2.98909 34.3869 2.98909 33.8914V30.9024C2.98909 30.4069 3.18592 29.9317 3.53627 29.5814C3.88662 29.231 4.3618 29.0342 4.85727 29.0342H42.9681C43.4635 29.0342 43.9387 29.231 44.2891 29.5814C44.6394 29.9317 44.8363 30.4069 44.8363 30.9024V33.8914C44.8363 34.3869 44.6394 34.8621 44.2891 35.2124C43.9387 35.5628 43.4635 35.7596 42.9681 35.7596ZM4.85727 29.7815C4.55998 29.7815 4.27488 29.8995 4.06467 30.1098C3.85446 30.32 3.73636 30.6051 3.73636 30.9024V33.8914C3.73636 34.1887 3.85446 34.4738 4.06467 34.684C4.27488 34.8943 4.55998 35.0123 4.85727 35.0123H42.9681C43.2654 35.0123 43.5505 34.8943 43.7607 34.684C43.9709 34.4738 44.089 34.1887 44.089 33.8914V30.9024C44.089 30.6051 43.9709 30.32 43.7607 30.1098C43.5505 29.8995 43.2654 29.7815 42.9681 29.7815H4.85727Z" fill="#444444"/>
<path d="M32.2223 8.85665C32.8375 8.85746 33.4375 9.04808 33.9403 9.40248C34.4432 9.75689 34.8244 10.2578 35.0321 10.8369L38.1556 19.5725L38.2378 19.8042L38.4471 19.9387L41.4362 21.9488C41.7914 22.1792 42.0834 22.4947 42.2857 22.8666C42.488 23.2386 42.5941 23.6552 42.5944 24.0785V29.033H5.2309V24.0785C5.2296 23.6565 5.33345 23.2408 5.53306 22.869C5.73268 22.4972 6.02176 22.1809 6.37422 21.9488L9.36331 19.9387L9.57254 19.8042L9.65474 19.5725L12.7783 10.8369C12.9868 10.2554 13.3703 9.75279 13.8762 9.39817C14.382 9.04356 14.9853 8.85438 15.603 8.85665H32.2223ZM32.2223 8.10938H15.603C14.8321 8.10927 14.08 8.34764 13.4498 8.79181C12.8197 9.23598 12.3424 9.86419 12.0834 10.5903L8.96725 19.3184L5.97817 21.3286C5.52109 21.6276 5.14532 22.0354 4.88449 22.5153C4.62367 22.9952 4.48594 23.5323 4.48363 24.0785V29.7802H43.3417V24.0785C43.3394 23.5323 43.2017 22.9952 42.9408 22.5153C42.68 22.0354 42.3042 21.6276 41.8472 21.3286L38.8581 19.3184L35.742 10.5903C35.4829 9.86419 35.0056 9.23598 34.3755 8.79181C33.7454 8.34764 32.9933 8.10927 32.2223 8.10938Z" fill="#444444"/>
<path d="M41.0468 16.7046C40.9701 16.7045 40.8951 16.6809 40.8323 16.6367C40.7695 16.5926 40.7217 16.5302 40.6956 16.458L37.4898 7.49073C37.4593 7.39837 37.4661 7.29776 37.5086 7.21028C37.5511 7.12281 37.6261 7.05536 37.7176 7.02228C37.809 6.98919 37.9098 6.99308 37.9984 7.03311C38.0871 7.07315 38.1566 7.14617 38.1923 7.23666L41.3981 16.2039C41.4317 16.2971 41.427 16.3998 41.385 16.4894C41.3429 16.5791 41.267 16.6484 41.1739 16.6822L41.0468 16.7046Z" fill="#444444"/>
<path d="M41.682 12.221C41.6057 12.2189 41.5317 12.1944 41.4693 12.1505C41.4068 12.1067 41.3587 12.0454 41.3308 11.9744L39.7317 7.49073C39.7012 7.39837 39.7079 7.29776 39.7504 7.21028C39.793 7.12281 39.8679 7.05536 39.9594 7.02228C40.0508 6.98919 40.1516 6.99308 40.2402 7.03311C40.3289 7.07315 40.3984 7.14617 40.4341 7.23666L42.0332 11.7203C42.051 11.7663 42.0592 11.8155 42.0574 11.8648C42.0557 11.9141 42.044 11.9625 42.023 12.0072C42.0021 12.0518 41.9724 12.0918 41.9356 12.1247C41.8988 12.1576 41.8558 12.1827 41.8091 12.1985C41.7685 12.2138 41.7254 12.2214 41.682 12.221V12.221Z" fill="#444444"/>
<path d="M5.97815 35.7588H14.1981V38.7479C14.1981 39.1442 14.0407 39.5244 13.7604 39.8047C13.4801 40.085 13.1 40.2424 12.7036 40.2424H7.47269C7.07631 40.2424 6.69617 40.085 6.41589 39.8047C6.13561 39.5244 5.97815 39.1442 5.97815 38.7479V35.7588Z" fill="#009DD4"/>
<path d="M33.6272 35.7588H41.8472V38.7479C41.8472 39.1442 41.6897 39.5244 41.4094 39.8047C41.1292 40.085 40.749 40.2424 40.3526 40.2424H35.1217C34.7254 40.2424 34.3452 40.085 34.0649 39.8047C33.7847 39.5244 33.6272 39.1442 33.6272 38.7479V35.7588Z" fill="#009DD4"/>
<path d="M29.4653 22.7955C25.8086 21.9809 22.0175 21.9809 18.3608 22.7955C18.0223 22.8699 17.7202 23.0597 17.5062 23.3324C17.2921 23.605 17.1795 23.9436 17.1876 24.2901V29.0352H30.6385V24.2527C30.6379 23.9126 30.5214 23.5828 30.3081 23.3178C30.0948 23.0529 29.7975 22.8687 29.4653 22.7955Z" fill="#009DD4"/>
<path d="M10.0882 23.0559C10.4577 23.0559 10.8188 23.1654 11.1261 23.3707C11.4333 23.576 11.6727 23.8678 11.8141 24.2091C11.9555 24.5505 11.9925 24.9261 11.9204 25.2885C11.8484 25.6509 11.6704 25.9838 11.4092 26.245C11.1479 26.5063 10.815 26.6842 10.4526 26.7563C10.0902 26.8284 9.71461 26.7914 9.37325 26.65C9.03188 26.5086 8.74011 26.2692 8.53483 25.9619C8.32956 25.6547 8.21999 25.2935 8.21999 24.924C8.21999 24.4286 8.41681 23.9534 8.76717 23.603C9.11752 23.2527 9.59269 23.0559 10.0882 23.0559ZM10.0882 22.3086C9.57088 22.3086 9.06521 22.462 8.6351 22.7494C8.20499 23.0368 7.86976 23.4452 7.67181 23.9232C7.47385 24.4011 7.42206 24.9269 7.52297 25.4343C7.62389 25.9416 7.87299 26.4077 8.23877 26.7734C8.60454 27.1392 9.07057 27.3883 9.57792 27.4892C10.0853 27.5902 10.6111 27.5384 11.0891 27.3404C11.567 27.1424 11.9754 26.8072 12.2628 26.3771C12.5502 25.947 12.7036 25.4413 12.7036 24.924C12.7036 24.2304 12.4281 23.5651 11.9376 23.0746C11.4471 22.5841 10.7818 22.3086 10.0882 22.3086V22.3086Z" fill="#444444"/>
<path d="M37.7372 23.0559C38.1066 23.0559 38.4678 23.1654 38.7751 23.3707C39.0823 23.576 39.3217 23.8678 39.4631 24.2091C39.6045 24.5505 39.6415 24.9261 39.5694 25.2885C39.4973 25.6509 39.3194 25.9838 39.0582 26.245C38.7969 26.5063 38.464 26.6842 38.1016 26.7563C37.7392 26.8284 37.3636 26.7914 37.0222 26.65C36.6809 26.5086 36.3891 26.2692 36.1838 25.9619C35.9785 25.6547 35.869 25.2935 35.869 24.924C35.869 24.4286 36.0658 23.9534 36.4162 23.603C36.7665 23.2527 37.2417 23.0559 37.7372 23.0559ZM37.7372 22.3086C37.2199 22.3086 36.7142 22.462 36.2841 22.7494C35.854 23.0368 35.5188 23.4452 35.3208 23.9232C35.1228 24.4011 35.071 24.9269 35.172 25.4343C35.2729 25.9416 35.522 26.4077 35.8878 26.7734C36.2535 27.1392 36.7196 27.3883 37.2269 27.4892C37.7343 27.5902 38.2601 27.5384 38.738 27.3404C39.216 27.1424 39.6244 26.8072 39.9118 26.3771C40.1992 25.947 40.3526 25.4413 40.3526 24.924C40.3526 24.2304 40.077 23.5651 39.5866 23.0746C39.0961 22.5841 38.4308 22.3086 37.7372 22.3086V22.3086Z" fill="#444444"/>
<path d="M31.5556 11.8469C31.7091 11.8469 31.859 11.8943 31.9847 11.9826C32.1104 12.0708 32.2058 12.1957 32.258 12.3401L34.4998 18.5723H13.3371L15.5789 12.3401C15.6311 12.1957 15.7266 12.0708 15.8523 11.9826C15.978 11.8943 16.1278 11.8469 16.2814 11.8469H31.5556ZM31.5556 11.0996H16.2664C15.9584 11.1003 15.6581 11.1961 15.4066 11.3741C15.1551 11.552 14.9647 11.8032 14.8615 12.0935L12.6197 18.3182C12.5785 18.4323 12.5656 18.5546 12.5822 18.6747C12.5988 18.7948 12.6444 18.9091 12.715 19.0077C12.7856 19.1062 12.8791 19.1861 12.9875 19.2405C13.0959 19.2948 13.2159 19.322 13.3371 19.3196H34.4849C34.6048 19.3195 34.723 19.2906 34.8295 19.2352C34.9359 19.1799 35.0274 19.0997 35.0963 19.0015C35.1652 18.9032 35.2095 18.7899 35.2253 18.671C35.2411 18.5521 35.2281 18.4311 35.1873 18.3182L32.9455 12.0935C32.8432 11.8056 32.6551 11.556 32.4066 11.3783C32.1581 11.2006 31.8611 11.1034 31.5556 11.0996Z" fill="#444444"/>
</svg>
