<svg width="72" height="72" viewBox="0 0 72 72" fill="none" xmlns="http://www.w3.org/2000/svg">
<rect width="72" height="72" fill="white"/>
<path d="M35.8854 17.9102C36.1533 17.6424 36.5494 17.5489 36.9088 17.6686L37.9694 18.0222C38.6747 18.2573 38.886 19.1523 38.3603 19.678L34.5547 23.4836L31.3727 22.4229L35.8854 17.9102Z" fill="#0099CC"/>
<path d="M29.5128 15.4976C29.7806 15.2298 30.1768 15.1363 30.5361 15.256L31.5968 15.6096C32.302 15.8447 32.5133 16.7397 31.9876 17.2654L28.182 21.071L25 20.0103L29.5128 15.4976Z" fill="#0099CC"/>
<path d="M53.5632 35.5879C53.831 35.3201 53.9245 34.9239 53.8048 34.5646L53.4512 33.5039C53.2161 32.7987 52.3211 32.5874 51.7954 33.1131L47.9898 36.9187L49.0505 40.1007L53.5632 35.5879Z" fill="#0099CC"/>
<path d="M55.6341 41.6189C55.9019 41.3511 55.9955 40.9549 55.8757 40.5956L55.5221 39.535C55.2871 38.8297 54.392 38.6184 53.8663 39.1441L50.0607 42.9497L51.1214 46.1317L55.6341 41.6189Z" fill="#0099CC"/>
<path fill-rule="evenodd" clip-rule="evenodd" d="M53.6222 19.5459C53.6602 18.7533 53.0213 18.121 52.2205 18.1639C51.03 18.2277 49.4819 18.3538 48.0831 18.6012C47.3834 18.7249 46.7324 18.8771 46.1873 19.0625C45.6331 19.251 45.231 19.4599 44.9927 19.6748C44.5931 20.0351 43.1166 21.6498 41.042 23.9702C38.9815 26.2748 36.36 29.2424 33.6925 32.2759C28.3576 38.3426 22.8415 44.6697 21.2664 46.4776C20.8482 46.9575 20.1964 47.0988 19.6207 46.883L15.1775 45.2175C14.9939 45.1486 14.7871 45.1935 14.6484 45.3321L12.6583 47.3222C12.4086 47.5719 12.4893 47.9946 12.8133 48.1347L19.3031 50.9419C19.6679 51.0997 19.9552 51.3958 20.1018 51.7652L22.475 57.7444C22.6054 58.0729 23.0262 58.1661 23.2831 57.9233L24.9146 56.3818C25.0453 56.2583 25.0996 56.0742 25.0569 55.8996L23.9647 51.4339C23.8312 50.888 23.9969 50.3105 24.448 49.9362C26.2044 48.4786 32.6461 43.1281 38.8731 37.8931C41.9868 35.2755 45.0457 32.6877 47.4379 30.6302C49.8476 28.5577 51.5425 27.0556 51.9648 26.5874C52.5136 25.979 52.9136 24.833 53.1829 23.4672C53.447 22.1281 53.5679 20.6762 53.6222 19.5459ZM52.167 17.1654C53.5508 17.0912 54.6878 18.2012 54.621 19.5938C54.5657 20.747 54.4415 22.2534 54.1641 23.6607C53.8918 25.0412 53.4539 26.4296 52.7074 27.2572C52.2307 27.7857 50.4691 29.3423 48.09 31.3884C45.6935 33.4495 42.6312 36.0401 39.5166 38.6586C33.2871 43.8957 26.8434 49.2478 25.0866 50.7057C24.9484 50.8204 24.8877 50.9984 24.9361 51.1964L26.0283 55.662C26.1564 56.1859 25.9934 56.7383 25.6014 57.1087L23.9699 58.6502C23.1992 59.3784 21.9367 59.0988 21.5455 58.1133L19.1723 52.1341C19.1235 52.011 19.0277 51.9123 18.9061 51.8597L12.4163 49.0525C11.4443 48.6321 11.2023 47.364 11.9512 46.6151L13.9413 44.625C14.3572 44.2091 14.9778 44.0746 15.5285 44.2811L19.9717 45.9466C20.1774 46.0238 20.3824 45.9699 20.5124 45.8207C22.0878 44.0125 27.6051 37.684 32.9415 31.6155C35.6096 28.5814 38.2332 25.6114 40.2965 23.3037C42.3457 21.0117 43.8718 19.339 44.323 18.9322C44.7107 18.5825 45.2638 18.3203 45.8653 18.1157C46.4758 17.9081 47.1809 17.7452 47.9089 17.6165C49.3655 17.3589 50.9594 17.2301 52.167 17.1654Z" fill="#444444"/>
<path fill-rule="evenodd" clip-rule="evenodd" d="M18.4808 17.8901L39.8264 24.4059L39.5345 25.3623L18.1888 18.8465C17.6393 18.6788 17.287 19.4186 17.7636 19.7395L33.8546 30.5745L33.296 31.404L17.205 20.5689C15.7753 19.6062 16.8323 17.3869 18.4808 17.8901ZM52.9114 53.6481L46.3608 32.1887L47.3173 31.8967L53.8678 53.3561C54.3697 55.0002 52.161 56.0593 51.1934 54.6384L39.7984 37.9071L40.625 37.3442L52.0199 54.0755C52.3424 54.5491 53.0787 54.1961 52.9114 53.6481Z" fill="#444444"/>
<path fill-rule="evenodd" clip-rule="evenodd" d="M26.0695 27.7262C26.2648 27.9215 26.2648 28.2381 26.0695 28.4333L20.7662 33.7366C20.5709 33.9319 20.2544 33.9319 20.0591 33.7366C19.8638 33.5414 19.8638 33.2248 20.0591 33.0295L25.3624 27.7262C25.5577 27.531 25.8742 27.531 26.0695 27.7262Z" fill="#444444"/>
<path fill-rule="evenodd" clip-rule="evenodd" d="M43.7472 45.4039C43.5519 45.2086 43.2353 45.2086 43.04 45.4039L37.7367 50.7072C37.5415 50.9025 37.5415 51.219 37.7367 51.4143C37.932 51.6096 38.2486 51.6096 38.4439 51.4143L43.7472 46.111C43.9424 45.9157 43.9424 45.5992 43.7472 45.4039Z" fill="#444444"/>
<path fill-rule="evenodd" clip-rule="evenodd" d="M19.352 25.9584C19.5472 26.1537 19.5472 26.4703 19.352 26.6655L11.2202 34.7972C11.025 34.9925 10.7084 34.9925 10.5131 34.7972C10.3179 34.602 10.3179 34.2854 10.5131 34.0901L18.6449 25.9584C18.8401 25.7631 19.1567 25.7631 19.352 25.9584Z" fill="#444444"/>
<path fill-rule="evenodd" clip-rule="evenodd" d="M45.5149 52.1214C45.3196 51.9262 45.003 51.9262 44.8077 52.1214L36.676 60.2532C36.4808 60.4484 36.4808 60.765 36.676 60.9603C36.8713 61.1555 37.1879 61.1555 37.3831 60.9603L45.5149 52.8285C45.7101 52.6333 45.7101 52.3167 45.5149 52.1214Z" fill="#444444"/>
</svg>
