<svg width="48" height="48" viewBox="0 0 48 48" fill="none" xmlns="http://www.w3.org/2000/svg">
<path fill-rule="evenodd" clip-rule="evenodd" d="M8.61795 26.3741C8.34234 26.3741 8.07905 26.2123 7.9572 25.9392C7.93036 25.8791 5.35697 19.8892 11.2704 15.3252C11.5924 15.078 12.0465 15.1448 12.2873 15.4714C12.5281 15.798 12.4643 16.2634 12.1444 16.5106C7.14921 20.3657 9.2555 25.2749 9.27726 25.3239C9.44335 25.6972 9.28234 26.1374 8.91751 26.3073C8.82031 26.3526 8.71877 26.3741 8.61795 26.3741" fill="#009BD0"/>
<path fill-rule="evenodd" clip-rule="evenodd" d="M39.7449 13.7423L39.5361 12.8479L35.7238 9.91016L34.3407 10.1172C39.8791 13.1092 38.3944 18.964 37.8156 20.5256C34.419 28.7838 25.336 37.1547 24.8399 37.6468C24.8283 37.6587 24.8123 37.6639 24.7993 37.6743C24.7862 37.6832 24.7739 37.6914 24.7608 37.6995C24.7064 37.7299 24.6484 37.7507 24.5882 37.7507C24.5389 37.7507 24.4903 37.7403 24.4446 37.7203C24.4431 37.7196 24.4424 37.7196 24.441 37.7188C24.441 37.7188 10.8719 33.1696 6.79278 26.7441C6.51717 26.3099 6.34672 25.9662 6.25388 25.6901C6.22777 25.6619 6.19948 25.633 6.17337 25.604C6.17845 25.6664 6.18643 25.7265 6.1886 25.7903C6.22197 26.7864 6.8305 27.7832 7.4898 28.6516C7.71973 28.8676 7.93297 29.1074 8.12227 29.3716C8.18392 29.4577 8.24557 29.5438 8.3065 29.6292C8.92954 29.8697 9.48295 30.3157 9.89347 30.9838C10.6028 31.1923 11.2512 31.6889 11.7191 32.5447C11.809 32.6568 11.9004 32.7681 11.9867 32.8839C12.3602 33.062 12.7309 33.3129 13.0877 33.661C15.1164 35.6406 18.0111 36.9766 20.4699 38.3289C22.6168 39.5098 24.9603 41.1071 27.3734 41.7558C27.3937 41.7254 27.4096 41.692 27.4307 41.6623C28.2321 40.5334 29.0844 39.587 30.1361 38.709C30.2267 38.634 30.3174 38.559 30.4081 38.4833C30.5488 38.1107 30.754 37.7418 31.034 37.3893C34.1536 33.4584 37.4631 29.4072 39.758 24.8907C41.8462 20.7773 42.005 17.2323 39.7449 13.7423" fill="#009BD0"/>
<path fill-rule="evenodd" clip-rule="evenodd" d="M40.8274 11.123C40.7282 11.1341 40.6246 11.1017 40.549 11.0239C38.6686 9.09573 36.4885 8.06151 34.0689 7.94913C33.8838 7.94031 33.7413 7.78312 33.7494 7.59729C33.759 7.41292 33.9132 7.27262 34.1013 7.2785C36.6942 7.39896 39.0256 8.50149 41.0294 10.5552C41.1586 10.6875 41.1564 10.8997 41.0242 11.0298C40.9677 11.0841 40.9001 11.115 40.8274 11.123" fill="#444444"/>
<mask id="mask0_3718_10802" style="mask-type:luminance" maskUnits="userSpaceOnUse" x="34" y="5" width="8" height="5">
<path fill-rule="evenodd" clip-rule="evenodd" d="M34.624 5.18359H42V9.03074H34.624V5.18359Z" fill="white"/>
</mask>
<g mask="url(#mask0_3718_10802)">
<path fill-rule="evenodd" clip-rule="evenodd" d="M41.7022 9.02846C41.6031 9.04022 41.4995 9.00716 41.4239 8.93004C39.5435 7.00115 37.3626 5.96693 34.9438 5.85455C34.7587 5.84573 34.6162 5.68928 34.6243 5.50344C34.6338 5.31834 34.7881 5.17584 34.9761 5.18392C37.569 5.30438 39.9004 6.40692 41.9042 8.46067C42.0343 8.59289 42.0313 8.80517 41.8991 8.93591C41.8433 8.98953 41.775 9.02038 41.7022 9.02846" fill="#444444"/>
</g>
<mask id="mask1_3718_10802" style="mask-type:luminance" maskUnits="userSpaceOnUse" x="5" y="11" width="23" height="32">
<path fill-rule="evenodd" clip-rule="evenodd" d="M5.00366 11.8037H27.4402V42.0019H5.00366V11.8037Z" fill="white"/>
</mask>
<g mask="url(#mask1_3718_10802)">
<path fill-rule="evenodd" clip-rule="evenodd" d="M27.073 42.0019C27.0238 42.0019 26.9731 41.9916 26.9246 41.9703C26.2114 41.6559 9.41338 34.1739 5.87073 26.3218C4.45308 23.1795 4.78876 19.5362 6.76759 16.5753C8.84191 13.4748 12.2839 11.687 16.0014 11.8096C16.567 11.8273 17.1399 11.8985 17.704 12.0197C20.485 12.6184 22.9523 14.3937 24.3031 16.7699C24.403 16.9462 24.3413 17.1703 24.165 17.2709C23.9887 17.3708 23.7639 17.3091 23.664 17.1328C22.4153 14.9358 20.1295 13.2927 17.5491 12.7381C17.0283 12.6257 16.4994 12.5603 15.9786 12.5434C12.5285 12.4406 9.30981 14.0933 7.37872 16.9837C5.54166 19.7323 5.22801 23.1104 6.54062 26.0199C9.96795 33.6157 27.0495 41.2225 27.2214 41.2989C27.4065 41.3804 27.491 41.5971 27.4087 41.783C27.3485 41.9203 27.2133 42.0019 27.073 42.0019" fill="#444444"/>
<path d="M27.073 42.0019C27.0238 42.0019 26.9731 41.9916 26.9246 41.9703C26.2114 41.6559 9.41338 34.1739 5.87073 26.3218C4.45308 23.1795 4.78876 19.5362 6.76759 16.5753C8.84191 13.4748 12.2839 11.687 16.0014 11.8096C16.567 11.8273 17.1399 11.8985 17.704 12.0197C20.485 12.6184 22.9523 14.3937 24.3031 16.7699C24.403 16.9462 24.3413 17.1703 24.165 17.2709C23.9887 17.3708 23.7639 17.3091 23.664 17.1328C22.4153 14.9358 20.1295 13.2927 17.5491 12.7381C17.0283 12.6257 16.4994 12.5603 15.9786 12.5434C12.5285 12.4406 9.30981 14.0933 7.37872 16.9837C5.54166 19.7323 5.22801 23.1104 6.54062 26.0199C9.96795 33.6157 27.0495 41.2225 27.2214 41.2989C27.4065 41.3804 27.491 41.5971 27.4087 41.783C27.3485 41.9203 27.2133 42.0019 27.073 42.0019" stroke="#444444" stroke-width="0.162172"/>
</g>
<path fill-rule="evenodd" clip-rule="evenodd" d="M27.0725 42.0005C26.9763 42.0005 26.8808 41.9631 26.8088 41.8889C26.6678 41.7427 26.6715 41.5106 26.8169 41.3696C26.9697 41.2212 42.1047 26.4409 41.152 18.0144C40.6467 13.5396 36.9277 10.1755 32.6843 10.3341C28.5533 10.4972 25.3229 12.9527 24.4554 16.5894L24.3165 16.9787C24.2468 17.1689 24.0382 17.2688 23.8457 17.1983C23.6555 17.1293 23.557 16.9185 23.6268 16.7275L23.7532 16.3786C24.6867 12.4532 28.1861 9.77661 32.6557 9.60032C37.2605 9.43211 41.3342 13.0769 41.8821 17.9321C42.8752 26.7157 27.9635 41.2814 27.3281 41.897C27.2569 41.966 27.1643 42.0005 27.0725 42.0005" fill="#444444"/>
<path d="M27.0725 42.0005C26.9763 42.0005 26.8808 41.9631 26.8088 41.8889C26.6678 41.7427 26.6715 41.5106 26.8169 41.3696C26.9697 41.2212 42.1047 26.4409 41.152 18.0144C40.6467 13.5396 36.9277 10.1755 32.6843 10.3341C28.5533 10.4972 25.3229 12.9527 24.4554 16.5894L24.3165 16.9787C24.2468 17.1689 24.0382 17.2688 23.8457 17.1983C23.6555 17.1293 23.557 16.9185 23.6268 16.7275L23.7532 16.3786C24.6867 12.4532 28.1861 9.77661 32.6557 9.60032C37.2605 9.43211 41.3342 13.0769 41.8821 17.9321C42.8752 26.7157 27.9635 41.2814 27.3281 41.897C27.2569 41.966 27.1643 42.0005 27.0725 42.0005" stroke="#444444" stroke-width="0.162172"/>
</svg>
