<svg width="48" height="48" viewBox="0 0 48 48" fill="none" xmlns="http://www.w3.org/2000/svg">
<g clip-path="url(#clip0_3718_10891)">
<g clip-path="url(#clip1_3718_10891)">
<path d="M32.6667 24.2638C38.1512 24.2638 42.5973 21.8697 42.5973 18.9166C42.5973 15.9634 38.1512 13.5693 32.6667 13.5693C27.1822 13.5693 22.7361 15.9634 22.7361 18.9166C22.7361 21.8697 27.1822 24.2638 32.6667 24.2638Z" stroke="#444444" stroke-width="0.763889" stroke-linecap="round" stroke-linejoin="round"/>
<path d="M15.0973 44.1252C21.0037 44.1252 25.7917 39.3372 25.7917 33.4308C25.7917 27.5244 21.0037 22.7363 15.0973 22.7363C9.1909 22.7363 4.40283 27.5244 4.40283 33.4308C4.40283 39.3372 9.1909 44.1252 15.0973 44.1252Z" fill="#0099CC"/>
<path d="M27.7931 28.1597C29.2368 28.5951 30.8945 28.8472 32.6667 28.8472C38.1514 28.8472 42.5973 26.4562 42.5973 23.5" stroke="#444444" stroke-width="0.763889" stroke-linecap="round" stroke-linejoin="round"/>
<path d="M28.8243 33.0177C30.0084 33.2851 31.2993 33.4302 32.6667 33.4302C38.1514 33.4302 42.5973 31.0393 42.5973 28.083" stroke="#444444" stroke-width="0.763889" stroke-linecap="round" stroke-linejoin="round"/>
<path d="M28.2438 37.4489C29.5729 37.808 31.0702 38.0142 32.6667 38.0142C38.1514 38.0142 42.5972 35.6232 42.5972 32.667" stroke="#444444" stroke-width="0.763889" stroke-linecap="round" stroke-linejoin="round"/>
<path d="M22.7361 18.917V22.0031" stroke="#444444" stroke-width="0.763889" stroke-linecap="round" stroke-linejoin="round"/>
<path d="M26.3188 41.36C28.0375 42.1316 30.2528 42.5975 32.6667 42.5975C38.1514 42.5975 42.5973 40.2066 42.5973 37.2503V18.917" stroke="#444444" stroke-width="0.763889" stroke-linecap="round" stroke-linejoin="round"/>
<path d="M35.7223 2.875C35.7223 4.63958 33.6674 6.69444 31.9028 6.69444C33.6674 6.69444 35.7223 8.74931 35.7223 10.5139C35.7223 8.74931 37.7771 6.69444 39.5417 6.69444C37.7771 6.69444 35.7223 4.63958 35.7223 2.875Z" fill="#0099CC"/>
<path d="M15.0972 22.7365V15.0977" stroke="#444444" stroke-width="0.763889" stroke-linejoin="round"/>
<path d="M15.0972 19.681C13.3785 19.7269 10.6438 19.3831 8.81806 17.5574C7.00001 15.7394 6.65626 13.0046 6.69445 11.2783C8.4132 11.2324 11.1479 11.5762 12.9736 13.4019C14.7917 15.2199 15.1354 17.9546 15.0972 19.681Z" stroke="#444444" stroke-width="0.763889" stroke-linejoin="round"/>
<path d="M15.0973 15.0971C16.6632 15.1353 19.1459 14.8221 20.8035 13.1721C22.4612 11.5221 22.7667 9.03183 22.7285 7.46586C21.1625 7.42767 18.6799 7.74086 17.0223 9.39086C15.3646 11.0409 15.0591 13.5311 15.0973 15.0971Z" stroke="#444444" stroke-width="0.763889" stroke-linejoin="round"/>
<path d="M10.7851 35.6948C11.0155 35.8758 11.2952 36.0568 11.6242 36.2377C11.9615 36.4105 12.3605 36.4969 12.8212 36.4969C12.994 36.4969 13.1626 36.4763 13.3271 36.4352C13.4917 36.3941 13.6356 36.3324 13.759 36.2501C13.8907 36.1596 13.9976 36.0444 14.0799 35.9046C14.1621 35.7647 14.2033 35.592 14.2033 35.3863C14.2033 35.1724 14.158 34.9914 14.0675 34.8433C13.977 34.6953 13.8578 34.5719 13.7097 34.4731C13.5616 34.3662 13.3888 34.2757 13.1914 34.2017C12.994 34.1276 12.7924 34.0536 12.5868 33.9795C12.3235 33.8891 12.0561 33.7903 11.7847 33.6834C11.5214 33.5764 11.2828 33.4366 11.0689 33.2638C10.8551 33.0911 10.6782 32.8731 10.5383 32.6098C10.4067 32.3383 10.3409 31.9969 10.3409 31.5856C10.3409 31.1907 10.419 30.8411 10.5754 30.5367C10.7317 30.2323 10.9456 29.9814 11.217 29.784C11.4885 29.5783 11.8011 29.4261 12.1549 29.3274C12.5086 29.2205 12.8829 29.167 13.2778 29.167C13.5493 29.167 13.8002 29.1876 14.0305 29.2287C14.2691 29.2698 14.4789 29.3192 14.6599 29.3768C14.8491 29.4344 15.0054 29.4961 15.1288 29.5619C15.2604 29.6195 15.3591 29.6729 15.4249 29.7223C15.6553 29.8539 15.7704 30.039 15.7704 30.2776C15.7704 30.3763 15.7252 30.512 15.6347 30.6848C15.5524 30.8493 15.4332 31.0139 15.2768 31.1784C15.0712 31.0139 14.8038 30.8576 14.4748 30.7095C14.1539 30.5614 13.8084 30.4874 13.4382 30.4874C13.2901 30.4874 13.1379 30.5038 12.9816 30.5367C12.8253 30.5614 12.6814 30.6108 12.5497 30.6848C12.4263 30.7506 12.3235 30.8452 12.2412 30.9686C12.159 31.092 12.1178 31.2442 12.1178 31.4252C12.1178 31.5979 12.159 31.7501 12.2412 31.8818C12.3235 32.0052 12.4346 32.1162 12.5744 32.2149C12.7143 32.3054 12.8747 32.3877 13.0557 32.4617C13.2449 32.5358 13.4382 32.6098 13.6356 32.6839C13.8989 32.7826 14.1663 32.8895 14.4377 33.0047C14.7092 33.1199 14.956 33.2679 15.1781 33.4489C15.4002 33.6217 15.5812 33.8438 15.7211 34.1153C15.8609 34.3785 15.9309 34.7117 15.9309 35.1148C15.9309 35.5508 15.8527 35.9375 15.6964 36.2748C15.5483 36.6038 15.3385 36.8835 15.0671 37.1139C14.7956 37.3442 14.4665 37.517 14.0799 37.6322C13.7015 37.7473 13.286 37.8049 12.8336 37.8049C12.2412 37.8049 11.76 37.7432 11.3898 37.6198C11.0278 37.5046 10.7646 37.3977 10.6 37.299C10.5013 37.2332 10.419 37.155 10.3532 37.0645C10.2874 36.974 10.2545 36.8712 10.2545 36.756C10.2545 36.6162 10.308 36.4475 10.4149 36.2501C10.5301 36.0526 10.6535 35.8675 10.7851 35.6948Z" fill="white"/>
<path d="M17.9864 37.5951H16.4193L19.3808 29.9938C19.4713 29.7716 19.5947 29.5989 19.751 29.4755C19.9156 29.3439 20.1418 29.2781 20.4297 29.2781C20.4955 29.2781 20.5819 29.2822 20.6889 29.2904C20.804 29.2986 20.8945 29.311 20.9603 29.3274L21.1701 29.3768L17.9864 37.5951Z" fill="white"/>
</g>
</g>
<defs>
<clipPath id="clip0_3718_10891">
<rect width="48" height="48" fill="white"/>
</clipPath>
<clipPath id="clip1_3718_10891">
<rect width="39.7222" height="42.7778" fill="white" transform="translate(3.63892 2.11133)"/>
</clipPath>
</defs>
</svg>
