<svg width="72" height="72" viewBox="0 0 72 72" fill="none" xmlns="http://www.w3.org/2000/svg">
<path d="M16 54V19C16 16.7909 17.7909 15 20 15H52C54.2091 15 56 16.7909 56 19V54C56 56.2091 54.2091 58 52 58H20C17.7909 58 16 56.2091 16 54Z" fill="white"/>
<path fill-rule="evenodd" clip-rule="evenodd" d="M20 15.5C18.067 15.5 16.5 17.067 16.5 19V54C16.5 55.933 18.067 57.5 20 57.5H52C53.933 57.5 55.5 55.933 55.5 54V19C55.5 17.067 53.933 15.5 52 15.5H20ZM15.5 19C15.5 16.5147 17.5147 14.5 20 14.5H52C54.4853 14.5 56.5 16.5147 56.5 19V54C56.5 56.4853 54.4853 58.5 52 58.5H20C17.5147 58.5 15.5 56.4853 15.5 54V19Z" fill="#444444"/>
<path fill-rule="evenodd" clip-rule="evenodd" d="M20.5 28C20.5 27.7239 20.7239 27.5 21 27.5H52C52.2761 27.5 52.5 27.7239 52.5 28C52.5 28.2761 52.2761 28.5 52 28.5H21C20.7239 28.5 20.5 28.2761 20.5 28Z" fill="#444444"/>
<path fill-rule="evenodd" clip-rule="evenodd" d="M21.1447 35.5214C20.8882 35.4437 20.6143 35.5826 20.5269 35.8382C20.4376 36.0995 20.5769 36.3838 20.8382 36.4731C20.9162 36.4998 21.0047 36.5127 21.0663 36.5206C21.1396 36.53 21.2278 36.5381 21.327 36.5454C21.5262 36.56 21.7895 36.5727 22.1071 36.5836C22.7432 36.6056 23.6147 36.6216 24.6636 36.6325C26.7624 36.6545 29.584 36.6566 32.6802 36.6466C38.8733 36.6264 46.1732 36.5575 51.006 36.5C51.2821 36.4967 51.5033 36.2702 51.5 35.9941C51.4967 35.7179 51.2702 35.4968 50.9941 35.5C46.163 35.5575 38.8662 35.6265 32.677 35.6466C29.582 35.6566 26.7659 35.6545 24.6741 35.6326C23.6277 35.6216 22.7656 35.6058 22.1416 35.5842C21.829 35.5734 21.5806 35.5613 21.4004 35.5481C21.3099 35.5414 21.2414 35.5348 21.193 35.5286C21.1634 35.5249 21.1487 35.5221 21.1447 35.5214ZM20.5 46C20.5 45.7239 20.7239 45.5 21 45.5H51C51.2762 45.5 51.5 45.7239 51.5 46C51.5 46.2762 51.2762 46.5 51 46.5H21C20.7239 46.5 20.5 46.2762 20.5 46Z" fill="#444444"/>
<path d="M34 28C34 29.6569 32.6569 31 31 31C29.3431 31 28 29.6569 28 28C28 26.3431 29.3431 25 31 25C32.6569 25 34 26.3431 34 28Z" fill="#0099CC"/>
<path fill-rule="evenodd" clip-rule="evenodd" d="M31 30C32.1046 30 33 29.1046 33 28C33 26.8954 32.1046 26 31 26C29.8954 26 29 26.8954 29 28C29 29.1046 29.8954 30 31 30ZM31 31C32.6569 31 34 29.6569 34 28C34 26.3431 32.6569 25 31 25C29.3431 25 28 26.3431 28 28C28 29.6569 29.3431 31 31 31Z" fill="#0099CC"/>
<path d="M45 36C45 37.6569 43.6569 39 42 39C40.3431 39 39 37.6569 39 36C39 34.3431 40.3431 33 42 33C43.6569 33 45 34.3431 45 36Z" fill="#0099CC"/>
<path fill-rule="evenodd" clip-rule="evenodd" d="M42 38C43.1046 38 44 37.1046 44 36C44 34.8954 43.1046 34 42 34C40.8954 34 40 34.8954 40 36C40 37.1046 40.8954 38 42 38ZM42 39C43.6569 39 45 37.6569 45 36C45 34.3431 43.6569 33 42 33C40.3431 33 39 34.3431 39 36C39 37.6569 40.3431 39 42 39Z" fill="#0099CC"/>
<path d="M38 46C38 47.6569 36.6569 49 35 49C33.3431 49 32 47.6569 32 46C32 44.3431 33.3431 43 35 43C36.6569 43 38 44.3431 38 46Z" fill="#0099CC"/>
<path fill-rule="evenodd" clip-rule="evenodd" d="M35 48C36.1046 48 37 47.1046 37 46C37 44.8954 36.1046 44 35 44C33.8954 44 33 44.8954 33 46C33 47.1046 33.8954 48 35 48ZM35 49C36.6569 49 38 47.6569 38 46C38 44.3431 36.6569 43 35 43C33.3431 43 32 44.3431 32 46C32 47.6569 33.3431 49 35 49Z" fill="#0099CC"/>
</svg>
