<svg width="72" height="72" viewBox="0 0 72 72" fill="none" xmlns="http://www.w3.org/2000/svg">
<path d="M40.7271 52.9425C38.1499 54.0472 35.3111 54.6588 32.3294 54.6588C20.55 54.6588 11 45.1088 11 33.3294C11 21.55 20.55 12 32.3294 12C44.1088 12 53.6588 21.55 53.6588 33.3294C53.6588 36.4629 52.9829 39.439 51.7685 42.1193" stroke="#444444" stroke-miterlimit="10"/>
<path d="M43.0566 21.0034C43.2534 20.8097 43.2559 20.4931 43.0622 20.2963C42.8685 20.0995 42.5519 20.097 42.3551 20.2907L43.0566 21.0034ZM37.4075 36.3546L36.9325 36.1984L37.4075 36.3546ZM42.3551 20.2907C42.2956 20.3493 42.2621 20.4129 42.2578 20.4207C42.2449 20.444 42.2338 20.467 42.2251 20.4857C42.2074 20.5239 42.1881 20.5701 42.1682 20.6198C42.1278 20.7206 42.0758 20.8588 42.0145 21.0272C41.8913 21.3653 41.7245 21.8407 41.5262 22.4161C41.1294 23.5679 40.6028 25.13 40.0387 26.8178C38.9104 30.1938 37.6301 34.0777 36.9325 36.1984L37.8825 36.5108C38.5799 34.3905 39.8596 30.5084 40.9872 27.1348C41.551 25.4477 42.0764 23.8891 42.4717 22.7419C42.6695 22.1679 42.8339 21.6992 42.954 21.3696C43.0143 21.2042 43.062 21.0777 43.0964 20.9918C43.1139 20.9481 43.1258 20.9204 43.1328 20.9054C43.1365 20.8974 43.136 20.899 43.1321 20.906C43.1302 20.9095 43.1248 20.919 43.1164 20.9316C43.1103 20.9407 43.0902 20.9704 43.0566 21.0034L42.3551 20.2907ZM35.2157 37.4412H27.1485V38.4412H35.2157V37.4412ZM25.4259 36.1774L23.3735 29.6561L22.4196 29.9563L24.472 36.4776L25.4259 36.1774ZM25.096 27.3081H40.5692V26.3081H25.096V27.3081ZM23.3735 29.6561C23.0073 28.4925 23.8762 27.3081 25.096 27.3081V26.3081C23.2007 26.3081 21.8506 28.1484 22.4196 29.9563L23.3735 29.6561ZM27.1485 37.4412C26.3599 37.4412 25.6626 36.9296 25.4259 36.1774L24.472 36.4776C24.8398 37.6463 25.9233 38.4412 27.1485 38.4412V37.4412ZM36.9325 36.1984C36.6886 36.9401 35.9964 37.4412 35.2157 37.4412V38.4412C36.4284 38.4412 37.5036 37.6627 37.8825 36.5108L36.9325 36.1984Z" fill="#444444"/>
<path d="M45.1296 43.8974C44.2533 43.5281 43.4942 44.2603 43.8534 45.1409C45.1848 48.4048 47.7461 54.5864 49.1448 57.9578C49.5241 58.8721 50.7978 58.9069 51.2306 58.0166C52.1333 56.1599 53.245 53.8332 53.1794 53.768C53.1118 53.7008 55.8464 52.3867 57.9446 51.393C58.848 50.9651 58.8216 49.667 57.9005 49.2788L45.1296 43.8974Z" stroke="#444444" stroke-miterlimit="10"/>
<path d="M59.3662 60.7848C59.5657 60.9757 59.8823 60.9687 60.0731 60.7691C60.264 60.5696 60.257 60.2531 60.0574 60.0622L59.3662 60.7848ZM60.0574 60.0622L53.428 53.721L52.7368 54.4437L59.3662 60.7848L60.0574 60.0622Z" fill="#444444"/>
<circle cx="27.4294" cy="42.2647" r="2.59412" fill="#0099CC"/>
<circle cx="35.5" cy="42.2647" r="2.59412" fill="#0099CC"/>
</svg>
