<svg width="147" height="63" viewBox="0 0 147 63" fill="none" xmlns="http://www.w3.org/2000/svg">
<g clip-path="url(#clip0_3011_196040)">
<path d="M42.9563 11.1483C43.4651 11.1483 43.8922 11.072 44.2356 10.9193C44.5791 10.7667 44.9225 10.5631 45.2659 10.3087C45.4313 10.5631 45.5967 10.8557 45.762 11.1864C45.9274 11.5172 46.011 11.8097 46.011 12.0641C46.011 12.2804 45.9528 12.4839 45.8384 12.6747C45.7239 12.8655 45.5203 13.0509 45.2278 13.2289C44.9479 13.3943 44.5718 13.5342 44.1011 13.6487C43.6305 13.7632 43.0326 13.8213 42.3058 13.8213C41.7842 13.8213 41.2246 13.7577 40.6267 13.6305C40.0289 13.5033 39.4746 13.2562 38.9658 12.8855C38.457 12.5166 38.0336 11.9987 37.6956 11.33C37.3576 10.6613 37.1904 9.78721 37.1904 8.706C37.1904 7.90462 37.3267 7.21046 37.6011 6.62533C37.8755 6.0402 38.2317 5.55684 38.6696 5.17523C39.1094 4.79362 39.6109 4.51378 40.1779 4.3357C40.7448 4.15761 41.3136 4.06857 41.886 4.06857C42.6619 4.06857 43.3234 4.18306 43.8704 4.41202C44.4173 4.64098 44.8607 4.94627 45.1969 5.32787C45.5331 5.70948 45.7784 6.15469 45.931 6.66349C46.0837 7.1723 46.16 7.70655 46.16 8.26624V8.52428C46.16 8.63331 46.1564 8.74416 46.1509 8.85864C46.1436 8.97312 46.1382 9.08215 46.1327 9.18391C46.1255 9.28567 46.1164 9.362 46.1037 9.41288H41.0065C41.0701 9.89624 41.2482 10.3069 41.5407 10.6449C41.8333 10.9829 42.304 11.1501 42.9527 11.1501L42.9563 11.1483ZM42.7837 7.82648C42.7837 7.29224 42.711 6.9288 42.5638 6.738C42.4166 6.5472 42.1786 6.45089 41.8478 6.45089C41.25 6.45089 40.9502 6.90881 40.9502 7.82467H42.7837V7.82648Z" fill="#0099CC"/>
<path d="M47.3083 4.40988C47.5246 4.359 47.7481 4.32084 47.977 4.2954C48.206 4.26996 48.4804 4.25724 48.7984 4.25724C49.3708 4.25724 49.8396 4.34265 50.2013 4.51528C50.5647 4.68791 50.8082 4.91869 50.9354 5.21126C51.088 4.94413 51.3715 4.68609 51.784 4.43896C52.1983 4.19 52.7544 4.06644 53.454 4.06644C54.2554 4.06644 54.8787 4.25724 55.3239 4.63885C55.7691 5.02045 56.0689 5.52381 56.2216 6.1471C56.2597 6.28702 56.2888 6.44693 56.307 6.62502C56.3269 6.8031 56.3379 6.98845 56.3451 7.17925C56.3524 7.37006 56.3578 7.55541 56.3651 7.73349C56.3706 7.91157 56.3742 8.06422 56.3742 8.19142V13.4594C55.9926 13.6248 55.5219 13.7084 54.9622 13.7084C54.4026 13.7084 53.921 13.6375 53.5976 13.4976C53.2723 13.3576 53.0306 13.1723 52.8725 12.9433C52.7126 12.7144 52.6181 12.4509 52.5854 12.151C52.5527 11.8512 52.5381 11.5368 52.5381 11.2061V7.92248C52.5381 7.64263 52.5054 7.41912 52.4418 7.25376C52.3782 7.08839 52.2056 7.0048 51.9258 7.0048C51.6459 7.0048 51.446 7.06477 51.3243 7.18652C51.2025 7.30827 51.1426 7.43729 51.1426 7.57721V13.5339H47.3047V4.40988H47.3083Z" fill="#0099CC"/>
<path d="M61.7227 0.13424C62.0279 0.0706395 62.3042 0.0324788 62.5531 0.0197586C62.8021 0.00703843 63.0074 0.00158691 63.1746 0.00158691C63.4799 0.00158691 63.7761 0.0306617 64.0614 0.086994C64.3485 0.143326 64.5992 0.246905 64.8155 0.392279C65.0317 0.53947 65.2062 0.742993 65.3406 1.00285C65.4751 1.26452 65.5405 1.59706 65.5405 2.00593V13.4596C65.0444 13.6249 64.5793 13.7085 64.1468 13.7085C63.5616 13.7085 63.1055 13.6376 62.7821 13.4977C62.4568 13.3578 62.2151 13.1725 62.057 12.9435C61.8971 12.7145 61.8026 12.451 61.7699 12.1512C61.7372 11.8514 61.7227 11.537 61.7227 11.2063V0.13424Z" fill="#0099CC"/>
<path d="M72.5452 11.1483C73.054 11.1483 73.481 11.072 73.8245 10.9193C74.1679 10.7667 74.5114 10.5631 74.8548 10.3087C75.0202 10.5631 75.1855 10.8557 75.3509 11.1864C75.5163 11.5172 75.5999 11.8097 75.5999 12.0641C75.5999 12.2804 75.5417 12.4839 75.4272 12.6747C75.3127 12.8655 75.1092 13.0509 74.8167 13.2289C74.5368 13.3943 74.1607 13.5342 73.69 13.6487C73.2194 13.7632 72.6215 13.8213 71.8946 13.8213C71.3731 13.8213 70.8134 13.7577 70.2156 13.6305C69.6177 13.5033 69.0635 13.2562 68.5547 12.8855C68.0459 12.5166 67.6225 11.9987 67.2845 11.33C66.9465 10.6613 66.7793 9.78721 66.7793 8.706C66.7793 7.90462 66.9156 7.21046 67.19 6.62533C67.4644 6.0402 67.8205 5.55684 68.2585 5.17523C68.6982 4.79362 69.1998 4.51378 69.7667 4.3357C70.3337 4.15761 70.9025 4.06857 71.4749 4.06857C72.2508 4.06857 72.9123 4.18306 73.4592 4.41202C74.0062 4.64098 74.4496 4.94627 74.7858 5.32787C75.1219 5.70948 75.3673 6.15469 75.5199 6.66349C75.6725 7.1723 75.7489 7.70655 75.7489 8.26624V8.52428C75.7489 8.63331 75.7452 8.74416 75.7398 8.85864C75.7325 8.97312 75.7271 9.08215 75.7216 9.18391C75.7143 9.28567 75.7052 9.362 75.6925 9.41288H70.5954C70.659 9.89624 70.837 10.3069 71.1296 10.6449C71.4222 10.9829 71.8928 11.1501 72.5416 11.1501L72.5452 11.1483ZM72.3726 7.82648C72.3726 7.29224 72.2999 6.9288 72.1527 6.738C72.0055 6.5472 71.7674 6.45089 71.4367 6.45089C70.8389 6.45089 70.539 6.90881 70.539 7.82467H72.3726V7.82648Z" fill="#0099CC"/>
<path d="M77.0708 11.9112C76.969 11.6186 76.9054 11.3297 76.88 11.0426C76.8545 10.7555 76.8418 10.4793 76.8418 10.2122V1.48791C77.1471 1.42431 77.4233 1.38615 77.6722 1.37343C77.9212 1.36071 78.1265 1.35526 78.2919 1.35526C78.5972 1.35526 78.8897 1.38433 79.1696 1.44066C79.4494 1.49881 79.7002 1.60057 79.9237 1.74595C80.1454 1.89314 80.3253 2.09666 80.458 2.35652C80.5924 2.61819 80.6579 2.94528 80.6579 3.33961V4.31361H83.102V7.13931H80.6579V9.98319C80.6579 10.3394 80.7342 10.5883 80.8868 10.7282C81.0395 10.8682 81.2503 10.939 81.5174 10.939C81.7463 10.939 81.9826 10.8845 82.2243 10.7773C82.4659 10.6701 82.6695 10.5447 82.8348 10.4048C83.0384 10.7737 83.2037 11.108 83.3309 11.4079C83.4581 11.7077 83.5217 11.9839 83.5217 12.2383C83.5217 12.4164 83.489 12.5763 83.4254 12.7162C83.3618 12.8561 83.2401 12.9906 83.062 13.1178C82.7821 13.3213 82.4042 13.4903 81.9262 13.623C81.4483 13.7575 80.905 13.8229 80.2944 13.8229C79.3786 13.8229 78.6626 13.6484 78.1465 13.2977C77.6304 12.947 77.2706 12.4873 77.0671 11.913L77.0708 11.9112Z" fill="#0099CC"/>
<path d="M84.457 4.40993C84.6733 4.35905 84.8968 4.32089 85.1257 4.29545C85.3547 4.27001 85.6291 4.25729 85.9471 4.25729C87.0792 4.25729 87.7915 4.57529 88.0859 5.2113C88.1495 5.09682 88.2458 4.97325 88.373 4.83878C88.5002 4.70431 88.6565 4.58074 88.84 4.46626C89.0236 4.35178 89.2307 4.25547 89.4597 4.17915C89.6887 4.10283 89.9304 4.06467 90.1848 4.06467C90.3756 4.06467 90.5627 4.08284 90.7481 4.12282C90.9316 4.16098 91.1006 4.22094 91.2533 4.30453C91.4059 4.38812 91.5295 4.49897 91.6258 4.63889C91.7221 4.77882 91.7693 4.95145 91.7693 5.15497C91.7693 5.35849 91.7439 5.58201 91.693 5.82369C91.6421 6.06537 91.5749 6.31433 91.4931 6.56873C91.4095 6.82313 91.3187 7.07209 91.2169 7.31377C91.1151 7.55545 91.0134 7.7717 90.9116 7.9625C90.6445 7.74626 90.3865 7.58453 90.1393 7.4755C89.8904 7.36829 89.6214 7.31377 89.3289 7.31377C88.9981 7.31377 88.7437 7.39736 88.5657 7.56272C88.3876 7.72809 88.2985 7.94433 88.2985 8.21145V13.5376H84.4607V4.40993H84.457Z" fill="#0099CC"/>
<path d="M100.913 11.4533C100.913 11.7713 100.939 12.1184 100.99 12.4946C101.04 12.8707 101.111 13.1978 101.2 13.4777C101.022 13.5285 100.862 13.5703 100.722 13.6012C100.583 13.6321 100.446 13.6576 100.312 13.6776C100.177 13.6957 100.037 13.7084 99.892 13.7157C99.7448 13.7212 99.5831 13.7248 99.405 13.7248C98.3747 13.7248 97.775 13.4322 97.6096 12.8471C97.3934 13.0633 97.0772 13.2614 96.6647 13.4395C96.2504 13.6176 95.7198 13.7066 95.0711 13.7066C94.6767 13.7066 94.2988 13.6557 93.9353 13.554C93.5719 13.4522 93.2502 13.2905 92.9704 13.067C92.6906 12.8453 92.467 12.5509 92.3017 12.1893C92.1363 11.8259 92.0527 11.3843 92.0527 10.8628C92.0527 10.125 92.2472 9.53622 92.636 9.09646C93.0231 8.65671 93.4956 8.32417 94.048 8.09338C94.6022 7.86442 95.1746 7.71905 95.767 7.65363C96.3594 7.59003 96.8646 7.55732 97.2844 7.55732V7.29019C97.2844 6.93403 97.1663 6.7087 96.9318 6.61239C96.6956 6.51608 96.4139 6.46883 96.0832 6.46883C95.638 6.46883 95.1983 6.5288 94.7658 6.65055C94.3333 6.7723 93.8499 6.95947 93.3157 7.21387C93.074 6.92131 92.8923 6.6342 92.7723 6.35435C92.6506 6.07451 92.5906 5.86371 92.5906 5.72379C92.5906 5.53299 92.6542 5.35491 92.7814 5.18954C92.9086 5.02418 93.1703 4.83883 93.5646 4.63531C93.9081 4.45722 94.3733 4.3173 94.9584 4.21554C95.5435 4.11378 96.1414 4.0629 96.7538 4.0629C98.242 4.0629 99.3087 4.35546 99.952 4.94059C100.595 5.52572 100.917 6.45611 100.917 7.72813V11.4515L100.913 11.4533ZM97.3443 9.25819C97.1027 9.28363 96.8737 9.32179 96.6575 9.37267C96.4412 9.42355 96.254 9.49624 96.0941 9.59255C95.9342 9.68886 95.807 9.81243 95.7125 9.96507C95.618 10.1177 95.569 10.3158 95.569 10.5575C95.569 10.85 95.6489 11.0754 95.807 11.2353C95.9669 11.3952 96.185 11.4733 96.4648 11.4733C96.6938 11.4733 96.8973 11.4224 97.0754 11.3207C97.2535 11.2189 97.3425 11.0663 97.3425 10.8628V9.26001L97.3443 9.25819Z" fill="#0099CC"/>
<path d="M105.972 4.06648C107.028 4.06648 107.938 4.22639 108.702 4.5444C109.045 4.68432 109.329 4.85332 109.55 5.04957C109.772 5.24765 109.885 5.47843 109.885 5.74555C109.885 5.97451 109.812 6.24891 109.665 6.56691C109.518 6.88492 109.338 7.1902 109.121 7.48277C108.74 7.1902 108.338 6.95215 107.918 6.7668C107.499 6.58327 107.072 6.49059 106.639 6.49059C106.092 6.49059 105.818 6.6505 105.818 6.96851C105.818 7.17203 105.92 7.32831 106.123 7.43552C106.327 7.54455 106.581 7.63541 106.886 7.71173C107.192 7.78805 107.522 7.87346 107.878 7.96977C108.235 8.06608 108.565 8.20782 108.871 8.39862C109.176 8.58943 109.43 8.8511 109.634 9.18182C109.837 9.51255 109.939 9.94503 109.939 10.4793C109.939 11.5096 109.583 12.3255 108.871 12.9234C108.158 13.5212 107.108 13.8211 105.721 13.8211C104.933 13.8211 104.319 13.7611 103.879 13.6393C103.439 13.5194 103.092 13.394 102.838 13.2668C102.507 13.1015 102.278 12.9197 102.151 12.7235C102.024 12.5272 101.96 12.3201 101.96 12.1038C101.96 11.7731 102.04 11.4478 102.198 11.1298C102.358 10.8118 102.538 10.4993 102.741 10.194C102.894 10.3339 103.068 10.4647 103.267 10.5847C103.463 10.7064 103.677 10.8173 103.906 10.919C104.135 11.0208 104.371 11.1008 104.613 11.1571C104.855 11.2134 105.091 11.2425 105.32 11.2425C105.651 11.2425 105.887 11.188 106.027 11.0808C106.167 10.9736 106.238 10.8355 106.238 10.6701C106.238 10.4793 106.132 10.3266 105.923 10.2122C105.712 10.0977 105.456 9.99592 105.151 9.90688C104.846 9.81783 104.508 9.71607 104.139 9.60159C103.77 9.48711 103.432 9.33083 103.127 9.13458C102.821 8.93832 102.563 8.67665 102.354 8.35138C102.143 8.0261 102.04 7.60452 102.04 7.08117C102.04 6.55783 102.147 6.12716 102.365 5.74555C102.581 5.36394 102.87 5.04957 103.234 4.80062C103.597 4.55167 104.013 4.36813 104.484 4.24638C104.955 4.12645 105.451 4.06467 105.972 4.06467V4.06648Z" fill="#0099CC"/>
<path d="M28.4752 29.9371H30.4668C31.0301 29.9371 31.4935 30.0007 31.857 30.1279C32.2204 30.2551 32.4984 30.4277 32.6892 30.6458C32.88 30.8638 33.0127 31.1092 33.0854 31.3817C33.1581 31.6543 33.1944 31.936 33.1944 32.2267C33.1944 32.2994 33.1889 32.3812 33.1799 32.472C33.1708 32.5629 33.1562 32.6538 33.1399 32.7446L32.3494 37.4075C31.6589 38.2797 30.6994 38.9757 29.4728 39.4936C28.2462 40.0115 26.8052 40.2713 25.1498 40.2713C23.7487 40.2713 22.573 40.066 21.619 39.6571C20.665 39.2483 19.8909 38.694 19.3003 37.9944C18.7097 37.2948 18.2827 36.4807 18.0192 35.554C17.7557 34.6272 17.623 33.655 17.623 32.6356C17.623 31.836 17.7048 30.9911 17.8684 30.0988C18.0319 29.2084 18.2809 28.3398 18.6189 27.4948C18.955 26.6498 19.3966 25.8412 19.9418 25.0671C20.4869 24.2948 21.1375 23.617 21.8916 23.0355C22.6457 22.454 23.5143 21.9906 24.4956 21.6453C25.4769 21.3001 26.5853 21.1274 27.8228 21.1274C28.9131 21.1274 29.8853 21.2783 30.7412 21.5781C31.5953 21.8779 32.2767 22.3195 32.7873 22.901C33.278 23.428 33.5233 24.0458 33.5233 24.7563C33.5233 25.5014 33.278 26.0829 32.7873 26.5008C32.2967 26.9188 31.6607 27.264 30.8793 27.5366C30.2978 26.101 29.2239 25.3814 27.6611 25.3814C26.8979 25.3814 26.2328 25.5868 25.6695 25.9956C25.1062 26.4045 24.6337 26.9369 24.2521 27.5911C23.8705 28.2453 23.5834 28.9867 23.3926 29.8135C23.2018 30.6403 23.1055 31.4726 23.1055 32.3085C23.0873 33.5078 23.3272 34.4182 23.8287 35.0361C24.3284 35.6539 25.0153 35.9628 25.8875 35.9628C26.1419 35.9628 26.4109 35.9319 26.6926 35.8683C26.9742 35.8047 27.2522 35.7175 27.5248 35.6085L28.4788 29.9353L28.4752 29.9371Z" fill="#0099CC"/>
<path d="M37.3369 21.6725C38.3 21.5453 39.2686 21.4599 40.2408 21.4126C41.213 21.3672 42.0361 21.3436 42.7085 21.3436C45.1272 21.3436 46.9225 21.8124 48.0946 22.7483C49.2667 23.6841 49.8536 24.9434 49.8536 26.5262C49.8536 27.3439 49.7664 28.0635 49.5938 28.6813C49.4211 29.2992 49.1795 29.8443 48.8705 30.3168C48.5616 30.7893 48.1927 31.1981 47.7657 31.5434C47.3387 31.8886 46.8789 32.1976 46.3883 32.4701L49.2249 39.3154C48.7888 39.5335 48.2981 39.7243 47.753 39.8878C47.2078 40.0514 46.6263 40.1332 46.0085 40.1332C45.1908 40.1332 44.5311 39.9969 44.0314 39.7243C43.5317 39.4517 43.1355 38.9338 42.8448 38.1706L41.2093 33.7803H40.4189L39.4103 39.7806H34.2568L37.3388 21.6725H37.3369ZM41.9998 30.0442C42.763 30.0442 43.3681 29.7498 43.8133 29.1574C44.2585 28.5669 44.4821 27.7982 44.4821 26.8533C44.4821 26.1991 44.304 25.7393 43.9496 25.4758C43.5953 25.2124 43.1719 25.0797 42.6812 25.0797H42.2996C42.1361 25.0797 41.9998 25.0888 41.8908 25.107L41.0458 30.0424H41.9998V30.0442Z" fill="#0099CC"/>
<path d="M58.0917 21.9178C58.5824 21.7361 59.1184 21.5962 59.6999 21.4944C60.2814 21.3945 60.8357 21.3436 61.3645 21.3436C62.3457 21.3436 63.1326 21.5617 63.7231 21.9978C64.3137 22.4339 64.6826 23.1063 64.828 24.0167L67.2012 39.7788H61.9914L61.3917 35.6066H56.7288L54.9298 39.7788H49.502L58.0917 21.916V21.9178ZM60.9283 32.1176L60.6558 28.545C60.6376 28.2906 60.6158 27.9854 60.5867 27.631C60.5594 27.2767 60.5449 26.935 60.5449 26.6079C60.5449 26.4626 60.5485 26.3208 60.5594 26.1845C60.5685 26.0483 60.5812 25.9247 60.6012 25.8157H60.5195C60.465 26.0155 60.3959 26.2336 60.3141 26.4698C60.2324 26.7061 60.1451 26.9514 60.0543 27.2058C59.9634 27.4602 59.8762 27.7019 59.7944 27.929C59.7126 28.1562 59.6345 28.3524 59.5618 28.516L58.0899 32.1158H60.9265L60.9283 32.1176Z" fill="#0099CC"/>
<path d="M71.753 21.5635C72.0255 21.509 72.349 21.4599 72.7215 21.4126C73.094 21.3672 73.5174 21.3436 73.9899 21.3436C74.8258 21.3436 75.4527 21.5126 75.8725 21.8488C76.2904 22.1849 76.5994 22.6174 76.7992 23.1444L79.9629 31.3798L81.5984 21.5617C81.8891 21.489 82.1799 21.4345 82.4706 21.3981C82.7614 21.3618 83.1248 21.3436 83.5609 21.3436C84.1243 21.3436 84.584 21.4072 84.9384 21.5344C85.2927 21.6616 85.5689 21.8342 85.7706 22.0523C85.9705 22.2704 86.1123 22.5157 86.194 22.7883C86.2758 23.0608 86.3158 23.3425 86.3158 23.6332C86.3158 23.7241 86.3103 23.8059 86.3031 23.8786C86.294 23.9512 86.2794 24.0421 86.2613 24.1511L83.6427 39.777H79.3615L75.3255 30.613L73.7718 39.777H68.6729L71.7548 21.5598L71.753 21.5635Z" fill="#0099CC"/>
<path d="M89.4247 21.727C90.8421 21.5453 91.9924 21.4362 92.8737 21.3999C93.7551 21.3635 94.4874 21.3454 95.0689 21.3454C96.5953 21.3454 97.8782 21.5543 98.914 21.9723C99.9498 22.3902 100.782 22.9408 101.409 23.6223C102.036 24.3037 102.481 25.0815 102.745 25.9537C103.008 26.826 103.141 27.7255 103.141 28.654C103.141 30.364 102.923 31.9031 102.487 33.2769C102.05 34.6507 101.396 35.8173 100.522 36.7804C99.65 37.7435 98.5669 38.4849 97.2767 39.0028C95.9865 39.5207 94.4856 39.7806 92.7774 39.7806H86.3955L89.4229 21.727H89.4247ZM93.3789 35.6629C94.1603 35.6629 94.8236 35.4503 95.3705 35.0214C95.9157 34.5944 96.3609 34.0492 96.7061 33.3859C97.0514 32.7227 97.3022 31.9722 97.4566 31.1363C97.6111 30.3004 97.6892 29.4736 97.6892 28.654C97.6892 27.6728 97.4657 26.8914 97.0205 26.3081C96.5753 25.7266 95.9066 25.4358 95.0162 25.4358H94.6473C94.511 25.4358 94.342 25.454 94.1421 25.4903L92.3976 35.6629H93.3789Z" fill="#0099CC"/>
<path d="M106.851 21.4817H118.905C118.923 22.0268 118.899 22.5538 118.836 23.0626C118.772 23.5714 118.63 24.0166 118.412 24.3982C118.194 24.7798 117.871 25.0888 117.444 25.325C117.017 25.5612 116.448 25.6793 115.739 25.6793H111.458L110.967 28.4342H116.093L115.412 32.6064H110.286L109.768 35.6338H113.995C114.485 35.6338 114.9 35.6938 115.236 35.8119C115.572 35.93 115.835 36.0899 116.026 36.2898C116.217 36.4897 116.353 36.7259 116.435 36.9985C116.517 37.2711 116.559 37.5618 116.559 37.8708C116.559 38.1797 116.526 38.4977 116.462 38.8248C116.399 39.1519 116.321 39.4699 116.23 39.7788H103.768L106.85 21.4799L106.851 21.4817Z" fill="#0099CC"/>
<path d="M119.641 33.7549C120.277 34.4818 120.946 35.0088 121.645 35.3359C122.345 35.663 123.077 35.8265 123.841 35.8265C124.894 35.8265 125.423 35.3813 125.423 34.4909C125.423 34.1274 125.272 33.8004 124.973 33.5096C124.673 33.2189 124.159 32.8645 123.432 32.4466C122.796 32.0831 122.227 31.7106 121.727 31.329C121.227 30.9474 120.804 30.5331 120.459 30.0879C120.113 29.6427 119.85 29.1466 119.668 28.6014C119.487 28.0563 119.396 27.4293 119.396 26.7207C119.396 25.8484 119.559 25.067 119.886 24.3747C120.213 23.6842 120.677 23.0972 121.276 22.6157C121.876 22.1341 122.594 21.7652 123.432 21.5108C124.268 21.2564 125.194 21.1292 126.214 21.1292C127.233 21.1292 128.218 21.2746 129.063 21.5653C129.908 21.8561 130.54 22.2013 130.958 22.6011C131.267 22.8919 131.494 23.1972 131.64 23.5152C131.785 23.8332 131.858 24.1475 131.858 24.4565C131.858 25.0925 131.658 25.6667 131.258 26.1755C130.858 26.6843 130.277 27.0659 129.512 27.3203C129.039 26.7388 128.531 26.2791 127.985 25.9429C127.44 25.6067 126.85 25.4377 126.214 25.4377C125.705 25.4377 125.36 25.5286 125.178 25.7103C124.996 25.892 124.905 26.1373 124.905 26.4463C124.905 26.8279 125.1 27.1695 125.492 27.4693C125.883 27.7692 126.343 28.0744 126.87 28.3834C127.651 28.8558 128.314 29.3101 128.861 29.7462C129.407 30.1824 129.848 30.6367 130.184 31.1091C130.52 31.5816 130.762 32.0777 130.907 32.5956C131.053 33.1135 131.126 33.6732 131.126 34.2728C131.126 35.2541 130.944 36.1191 130.58 36.8641C130.217 37.6091 129.712 38.2324 129.067 38.7322C128.422 39.2319 127.666 39.6099 126.802 39.8643C125.939 40.1187 125.016 40.2459 124.035 40.2459C123.635 40.2459 123.208 40.2222 122.754 40.1768C122.3 40.1314 121.854 40.0587 121.418 39.9587C120.982 39.8588 120.564 39.7316 120.164 39.5771C119.765 39.4227 119.41 39.2355 119.101 39.0175C118.665 38.7085 118.338 38.376 118.12 38.0216C117.902 37.6673 117.793 37.2439 117.793 36.7533C117.793 36.2263 117.944 35.7084 118.244 35.1996C118.543 34.6908 119.012 34.2092 119.648 33.7549H119.641Z" fill="#0099CC"/>
<path d="M24.165 8.46555H34.6374" stroke="#0099CC" stroke-width="1.77901" stroke-linecap="round" stroke-linejoin="round"/>
<path d="M56.7945 53.0898H8.54672C4.73248 53.0898 1.63965 49.7208 1.63965 45.5667V15.9886C1.63965 11.8346 4.73248 8.46555 8.54672 8.46555H13.9401" stroke="#0099CC" stroke-width="1.77901" stroke-linecap="round" stroke-linejoin="round"/>
<path d="M112.362 8.46555H138.453C142.267 8.46555 145.36 11.8346 145.36 15.9886V45.5667C145.36 49.7208 142.267 53.0898 138.453 53.0898H89.5908" stroke="#0099CC" stroke-width="1.77901" stroke-linecap="round" stroke-linejoin="round"/>
<path d="M57.6927 47.6893H57.6908C57.182 47.6893 56.7695 48.1018 56.7695 48.6106V57.5711C56.7695 58.0799 57.182 58.4924 57.6908 58.4924H57.6927C58.2015 58.4924 58.614 58.0799 58.614 57.5711V48.6106C58.614 48.1018 58.2015 47.6893 57.6927 47.6893Z" fill="#0099CC"/>
<path d="M61.6448 44.0003H61.643C61.1342 44.0003 60.7217 44.4128 60.7217 44.9216V61.2598C60.7217 61.7686 61.1342 62.1811 61.643 62.1811H61.6448C62.1536 62.1811 62.5661 61.7686 62.5661 61.2598V44.9216C62.5661 44.4128 62.1536 44.0003 61.6448 44.0003Z" fill="#0099CC"/>
<path d="M65.597 49.2683H65.5951C65.0863 49.2683 64.6738 49.6808 64.6738 50.1896V55.9882C64.6738 56.497 65.0863 56.9095 65.5951 56.9095H65.597C66.1058 56.9095 66.5183 56.497 66.5183 55.9882V50.1896C66.5183 49.6808 66.1058 49.2683 65.597 49.2683Z" fill="#0099CC"/>
<path d="M69.5501 46.1081H69.5483C69.0394 46.1081 68.627 46.5206 68.627 47.0294V59.1518C68.627 59.6606 69.0394 60.0731 69.5483 60.0731H69.5501C70.0589 60.0731 70.4714 59.6606 70.4714 59.1518V47.0294C70.4714 46.5206 70.0589 46.1081 69.5501 46.1081Z" fill="#0099CC"/>
<path d="M73.5022 47.4256H73.5004C72.9916 47.4256 72.5791 47.8381 72.5791 48.3469V57.8343C72.5791 58.3432 72.9916 58.7556 73.5004 58.7556H73.5022C74.0111 58.7556 74.4235 58.3432 74.4235 57.8343V48.3469C74.4235 47.8381 74.0111 47.4256 73.5022 47.4256Z" fill="#0099CC"/>
<path d="M89.3098 47.6893H89.308C88.7992 47.6893 88.3867 48.1018 88.3867 48.6106V57.5711C88.3867 58.0799 88.7992 58.4924 89.308 58.4924H89.3098C89.8187 58.4924 90.2311 58.0799 90.2311 57.5711V48.6106C90.2311 48.1018 89.8187 47.6893 89.3098 47.6893Z" fill="#0099CC"/>
<path d="M85.3577 44.0003H85.3559C84.847 44.0003 84.4346 44.4128 84.4346 44.9216V61.2598C84.4346 61.7686 84.847 62.1811 85.3559 62.1811H85.3577C85.8665 62.1811 86.279 61.7686 86.279 61.2598V44.9216C86.279 44.4128 85.8665 44.0003 85.3577 44.0003Z" fill="#0099CC"/>
<path d="M81.4046 49.2683H81.4027C80.8939 49.2683 80.4814 49.6808 80.4814 50.1896V55.9882C80.4814 56.497 80.8939 56.9095 81.4027 56.9095H81.4046C81.9134 56.9095 82.3259 56.497 82.3259 55.9882V50.1896C82.3259 49.6808 81.9134 49.2683 81.4046 49.2683Z" fill="#0099CC"/>
<path d="M77.4544 46.1081H77.4526C76.9437 46.1081 76.5312 46.5206 76.5312 47.0294V59.1518C76.5312 59.6606 76.9437 60.0731 77.4526 60.0731H77.4544C77.9632 60.0731 78.3757 59.6606 78.3757 59.1518V47.0294C78.3757 46.5206 77.9632 46.1081 77.4544 46.1081Z" fill="#0099CC"/>
<path d="M18.0174 1.06866C13.8924 1.06866 10.5488 4.41226 10.5488 8.53724C10.5488 12.6622 13.8924 16.0058 18.0174 16.0058C22.1424 16.0058 25.486 12.6622 25.486 8.53724C25.486 4.41226 22.1424 1.06866 18.0174 1.06866ZM23.0346 9.05877C22.9074 9.21505 22.7439 9.32771 22.5712 9.42584C20.5396 10.5906 18.5062 11.7591 16.4728 12.9203C16.3256 13.0039 16.1639 13.0711 16.0022 13.1147C15.5606 13.2346 15.1826 13.0347 15.0191 12.6095C14.9427 12.4133 14.9282 12.2061 14.9282 11.999C14.9282 9.68933 14.9282 7.3797 14.9282 5.07008C14.9282 4.9774 14.9318 4.88291 14.9427 4.79205C14.9718 4.53946 15.0481 4.30687 15.239 4.12333C15.3589 4.00885 15.5079 3.95797 15.6624 3.92162H15.8786C16.0876 3.96524 16.2856 4.03792 16.4728 4.14514C18.508 5.31358 20.5433 6.47839 22.5767 7.65046C22.7239 7.73405 22.8638 7.83945 22.9837 7.95756C23.3126 8.28284 23.3254 8.70079 23.0364 9.05877H23.0346Z" fill="#0099CC"/>
</g>
<defs>
<clipPath id="clip0_3011_196040">
<rect width="145.497" height="62.18" fill="white" transform="translate(0.750977)"/>
</clipPath>
</defs>
</svg>
