<svg width="72" height="72" viewBox="0 0 72 72" fill="none" xmlns="http://www.w3.org/2000/svg">
<path fill-rule="evenodd" clip-rule="evenodd" d="M47.1023 23.5647C48.2146 23.1066 49.369 22.1615 50.2479 20.8039C51.1267 19.4462 51.5164 18.0061 51.4791 16.8038C51.4416 15.5966 50.9884 14.7314 50.2986 14.2849C49.6088 13.8383 48.6339 13.7791 47.5172 14.239C46.4049 14.6972 45.2505 15.6423 44.3717 16.9999C43.4928 18.3575 43.1031 19.7976 43.1405 21C43.1779 22.2071 43.6311 23.0724 44.3209 23.5189C45.0107 23.9655 45.9857 24.0247 47.1023 23.5647ZM43.7775 24.3584C45.8638 25.7089 49.1365 24.3608 51.0873 21.3473C53.0381 18.3338 52.9283 14.796 50.842 13.4454C48.7557 12.0948 45.483 13.4429 43.5322 16.4565C41.5814 19.47 41.6912 23.0078 43.7775 24.3584Z" fill="#444444"/>
<path fill-rule="evenodd" clip-rule="evenodd" d="M47.1023 23.5647C48.2146 23.1066 49.369 22.1615 50.2479 20.8039C51.1267 19.4462 51.5164 18.0061 51.4791 16.8038C51.4416 15.5966 50.9884 14.7314 50.2986 14.2849C49.6088 13.8383 48.6339 13.7791 47.5172 14.239C46.4049 14.6972 45.2505 15.6423 44.3717 16.9999C43.4928 18.3575 43.1031 19.7976 43.1405 21C43.1779 22.2071 43.6311 23.0724 44.3209 23.5189C45.0107 23.9655 45.9857 24.0247 47.1023 23.5647ZM43.7775 24.3584C45.8638 25.7089 49.1365 24.3608 51.0873 21.3473C53.0381 18.3338 52.9283 14.796 50.842 13.4454C48.7557 12.0948 45.483 13.4429 43.5322 16.4565C41.5814 19.47 41.6912 23.0078 43.7775 24.3584Z" fill="#444444"/>
<path d="M29.7111 21.4284L18.5208 48.7825C17.6819 50.8331 18.6697 53.175 20.7238 54.0054L36.8543 60.5262C38.8777 61.3442 41.1834 60.3892 42.0358 58.38L53.6664 30.9649C54.1874 29.7369 54.0619 28.3301 53.332 27.2137L47.5198 18.3245C46.6059 16.9268 44.9199 16.2439 43.2909 16.6118L32.5323 19.0411C31.2586 19.3287 30.2055 20.2199 29.7111 21.4284Z" fill="white"/>
<path fill-rule="evenodd" clip-rule="evenodd" d="M47.1014 18.5981C46.3017 17.3751 44.8264 16.7775 43.4011 17.0994L32.6424 19.5288C31.528 19.7804 30.6065 20.5602 30.1739 21.6176L18.9836 48.9717C18.2495 50.766 19.1139 52.8152 20.9112 53.5418L37.0417 60.0626C38.8122 60.7783 40.8296 59.9427 41.5755 58.1846L53.2061 30.7695C53.662 29.695 53.5522 28.4641 52.9135 27.4872L47.1014 18.5981ZM43.1808 16.124C45.0134 15.7101 46.9102 16.4784 47.9383 18.0508L53.7505 26.94C54.5717 28.1959 54.7128 29.7786 54.1267 31.16L42.4961 58.5752C41.5371 60.8355 38.9433 61.9099 36.6669 60.9897L20.5365 54.4689C18.2256 53.5347 17.1143 50.9 18.058 48.593L29.2484 21.239C29.8045 19.8794 30.9893 18.8769 32.4221 18.5533L43.1808 16.124Z" fill="#444444"/>
<path d="M35.0556 39.0516C34.5709 40.2496 33.8873 41.0472 33.0049 41.4447C32.1225 41.8421 31.1739 41.8355 30.1592 41.4249C29.088 40.9916 28.3806 40.3281 28.0369 39.4346C27.7072 38.5468 27.7848 37.5039 28.2695 36.306C28.7541 35.108 29.4419 34.3202 30.3327 33.9426C31.2235 33.565 32.1622 33.5757 33.1488 33.9749C34.2058 34.4026 34.909 35.0561 35.2585 35.9355C35.6079 36.8149 35.5403 37.8536 35.0556 39.0516ZM32.9501 38.1751C33.2067 37.5409 33.3175 37.0035 33.2825 36.5629C33.2533 36.1083 32.992 35.7812 32.4987 35.5816C32.0195 35.3877 31.6114 35.444 31.2742 35.7504C30.9511 36.0625 30.6613 36.5356 30.4047 37.1699C30.1424 37.8182 30.023 38.3767 30.0465 38.8455C30.0758 39.3001 30.323 39.6215 30.7881 39.8097C31.2814 40.0093 31.6966 39.9559 32.0338 39.6495C32.3709 39.3431 32.6764 38.8516 32.9501 38.1751ZM41.1398 50.099C40.6551 51.297 39.9716 52.0947 39.0891 52.4921C38.2067 52.8895 37.2581 52.8829 36.2434 52.4724C35.1864 52.0447 34.486 51.3841 34.1422 50.4906C33.7985 49.5971 33.869 48.5514 34.3537 47.3534C34.5932 46.7615 34.8916 46.2672 35.2489 45.8705C35.6062 45.4738 35.9955 45.1803 36.4169 44.99C36.8524 44.8054 37.3059 44.7183 37.7774 44.7286C38.2545 44.7248 38.7397 44.8228 39.233 45.0223C40.29 45.45 40.9933 46.1035 41.3427 46.9829C41.6921 47.8624 41.6245 48.9011 41.1398 50.099ZM39.0343 49.2225C39.2909 48.5883 39.4017 48.0509 39.3668 47.6104C39.3375 47.1557 39.0762 46.8286 38.583 46.629C38.1179 46.4408 37.7167 46.5 37.3795 46.8064C37.0424 47.1128 36.7455 47.5831 36.4889 48.2173C36.2266 48.8656 36.1072 49.4241 36.1308 49.8929C36.16 50.3476 36.4072 50.669 36.8723 50.8571C37.3797 51.0624 37.7949 51.009 38.118 50.6969C38.4552 50.3905 38.7606 49.899 39.0343 49.2225ZM28.7359 49.0167L26.3893 48.0673L39.7433 38.0453C40.0973 37.7785 40.4228 37.5821 40.7197 37.4562C41.0223 37.3163 41.3992 37.3375 41.8502 37.52C41.9911 37.577 42.1362 37.6439 42.2856 37.7208C42.449 37.8033 42.5814 37.8814 42.6827 37.9552L43.0502 38.2023L28.7359 49.0167Z" fill="#0099CC"/>
<path fill-rule="evenodd" clip-rule="evenodd" d="M43 25C44.1046 25 45 24.1046 45 23C45 21.8954 44.1046 21 43 21C41.8954 21 41 21.8954 41 23C41 24.1046 41.8954 25 43 25ZM43 26C44.6569 26 46 24.6569 46 23C46 21.3431 44.6569 20 43 20C41.3431 20 40 21.3431 40 23C40 24.6569 41.3431 26 43 26Z" fill="#444444"/>
<path fill-rule="evenodd" clip-rule="evenodd" d="M47.1023 23.5647C48.2146 23.1066 49.369 22.1615 50.2479 20.8039C51.1267 19.4462 51.5164 18.0061 51.4791 16.8038C51.4416 15.5966 50.9884 14.7314 50.2986 14.2849C49.6088 13.8383 48.6339 13.7791 47.5172 14.239C46.4049 14.6972 45.2505 15.6423 44.3717 16.9999C43.4928 18.3575 43.1031 19.7976 43.1405 21C43.1779 22.2071 43.6311 23.0724 44.3209 23.5189C45.0107 23.9655 45.9857 24.0247 47.1023 23.5647ZM43.7775 24.3584C45.8638 25.7089 49.1365 24.3608 51.0873 21.3473C53.0381 18.3338 52.9283 14.796 50.842 13.4454C48.7557 12.0948 45.483 13.4429 43.5322 16.4565C41.5814 19.47 41.6912 23.0078 43.7775 24.3584Z" fill="#444444"/>
<path d="M45.9972 22.6709C45.9682 23.5662 45.7119 24.2601 45.3583 24.796C45.2003 25.0355 45.6424 26.0596 45.9254 26.0124C45.9739 26.0043 46.0237 26.0118 46.0677 26.0338L47.2374 26.6187C47.7295 26.8647 48.2934 26.9266 48.8271 26.7932C50.3734 26.4066 51.0699 24.6049 50.1858 23.2787L49.016 21.524C48.3813 20.5719 47.521 20.4446 46.8884 21.3981C46.682 21.7093 46.433 22.0459 46.1182 22.3784C46.0437 22.4572 46.0008 22.5624 45.9972 22.6709Z" fill="white"/>
</svg>
