<svg width="72" height="72" viewBox="0 0 72 72" fill="none" xmlns="http://www.w3.org/2000/svg">
<path d="M35.9296 52.0368C30.7672 54.5979 24.8769 56.2931 20.0523 56.9441C17.8358 57.2432 16.0322 55.4094 16.0714 53.1731L16.5023 28.6114C16.5262 27.253 17.2379 25.9996 18.3922 25.2831L34.4277 15.3295C35.7365 14.5171 37.3955 14.5285 38.6931 15.3587L54.1559 25.2525C55.3049 25.9877 56 27.2577 56 28.6218V53.2433C56 55.4524 54.2047 57.2602 52.0089 57.0174C46.3951 56.3967 40.719 54.5431 35.9296 52.0368Z" fill="white"/>
<path fill-rule="evenodd" clip-rule="evenodd" d="M34.164 14.9047C35.6364 13.9908 37.5028 14.0035 38.9625 14.9375L54.4253 24.8313C55.718 25.6584 56.5 27.0872 56.5 28.6218V53.2433C56.5 55.7127 54.482 57.7939 51.954 57.5144C46.361 56.896 40.715 55.0701 35.9236 52.5971C30.766 55.1205 24.9248 56.7912 20.1191 57.4396C17.5568 57.7853 15.5277 55.6625 15.5715 53.1644L16.0024 28.6027C16.0292 27.0745 16.8299 25.6643 18.1285 24.8583L34.164 14.9047ZM37.0308 52.0366C41.5799 54.2912 46.8528 55.9442 52.0639 56.5204C53.9273 56.7265 55.5 55.1922 55.5 53.2433V28.6218C55.5 27.4282 54.8918 26.3169 53.8864 25.6736L38.4236 15.7799C37.2882 15.0534 35.8366 15.0435 34.6914 15.7543L18.6559 25.7079C17.6458 26.3349 17.0231 27.4316 17.0022 28.6202L16.5713 53.1819C16.5367 55.1562 18.1147 56.701 19.9854 56.4486C24.4867 55.8412 29.9355 54.3125 34.8293 52.0129C31.5716 50.2143 28.7513 48.1113 26.6906 45.8878C24.4568 43.4775 23.0676 40.8717 23.0676 38.3243C23.0676 34.4726 25.059 31.5668 27.8464 30.462C30.5323 29.3975 33.8314 30.0527 36.5956 32.923C39.4519 30.3443 42.4591 29.6097 44.8478 30.5535C47.346 31.5405 48.9324 34.2694 48.9324 38.0388V38.0517L48.9318 38.0647C48.7715 41.1554 47.2484 43.9297 44.9463 46.3354C42.8456 48.5305 40.0762 50.4409 37.0308 52.0366ZM35.9357 51.4748C32.4807 49.6409 29.5236 47.4735 27.4241 45.208C25.271 42.8849 24.0676 40.5122 24.0676 38.3243C24.0676 34.8246 25.8599 32.3251 28.2149 31.3917C30.5579 30.4631 33.5932 31.0335 36.1958 33.9632L36.5417 34.3527L36.9166 33.9911C39.7192 31.2888 42.484 30.6947 44.4803 31.4835C46.4691 32.2693 47.9288 34.5205 47.9324 38.0258C47.7848 40.7999 46.4148 43.3545 44.2238 45.644C42.0787 47.8855 39.1696 49.8472 35.9357 51.4748Z" fill="#444444"/>
<path d="M40.6702 40.8649H37.6V37.7838H35.2865V40.8649H32.2162V43.1676H35.2865V46.2487H37.6V43.1676H40.6702V40.8649Z" fill="white"/>
<path d="M40.4541 41.0811H37.3838V38H35.0703V41.0811H32V43.3838H35.0703V46.4649H37.3838V43.3838H40.4541V41.0811Z" fill="#0099CC"/>
</svg>
